solid OpenSCAD_Model
  facet normal 0.994522 0.104529 0
    outer loop
      vertex 10 0 1.5
      vertex 9.78148 2.07912 0
      vertex 9.78148 2.07912 1.5
    endloop
  endfacet
  facet normal 0.994522 0.104529 0
    outer loop
      vertex 9.78148 2.07912 0
      vertex 10 0 1.5
      vertex 10 0 0
    endloop
  endfacet
  facet normal -0.994522 0.104529 0
    outer loop
      vertex -10 0 0
      vertex -9.78148 2.07912 1.5
      vertex -9.78148 2.07912 0
    endloop
  endfacet
  facet normal -0.994522 0.104529 0
    outer loop
      vertex -9.78148 2.07912 1.5
      vertex -10 0 0
      vertex -10 0 1.5
    endloop
  endfacet
  facet normal 0 1 -0
    outer loop
      vertex 1.04528 9.94522 0
      vertex -1.04528 9.94522 1.5
      vertex 1.04528 9.94522 1.5
    endloop
  endfacet
  facet normal 0 1 0
    outer loop
      vertex -1.04528 9.94522 1.5
      vertex 1.04528 9.94522 0
      vertex -1.04528 9.94522 0
    endloop
  endfacet
  facet normal 0 -1 0
    outer loop
      vertex -1.04528 -9.94522 0
      vertex 1.04528 -9.94522 1.5
      vertex -1.04528 -9.94522 1.5
    endloop
  endfacet
  facet normal 0 -1 -0
    outer loop
      vertex 1.04528 -9.94522 1.5
      vertex -1.04528 -9.94522 0
      vertex 1.04528 -9.94522 0
    endloop
  endfacet
  facet normal 0.587785 0.809017 -0
    outer loop
      vertex 6.69131 7.43145 0
      vertex 5 8.66025 1.5
      vertex 6.69131 7.43145 1.5
    endloop
  endfacet
  facet normal 0.587785 0.809017 0
    outer loop
      vertex 5 8.66025 1.5
      vertex 6.69131 7.43145 0
      vertex 5 8.66025 0
    endloop
  endfacet
  facet normal 0.406737 0.913545 -0
    outer loop
      vertex 5 8.66025 0
      vertex 3.09017 9.51056 1.5
      vertex 5 8.66025 1.5
    endloop
  endfacet
  facet normal 0.406737 0.913545 0
    outer loop
      vertex 3.09017 9.51056 1.5
      vertex 5 8.66025 0
      vertex 3.09017 9.51056 0
    endloop
  endfacet
  facet normal -0.743145 0.669131 0
    outer loop
      vertex -8.09017 5.87785 0
      vertex -6.69131 7.43145 1.5
      vertex -6.69131 7.43145 0
    endloop
  endfacet
  facet normal -0.743145 0.669131 0
    outer loop
      vertex -6.69131 7.43145 1.5
      vertex -8.09017 5.87785 0
      vertex -8.09017 5.87785 1.5
    endloop
  endfacet
  facet normal -0.866026 0.5 0
    outer loop
      vertex -9.13545 4.06737 0
      vertex -8.09017 5.87785 1.5
      vertex -8.09017 5.87785 0
    endloop
  endfacet
  facet normal -0.866026 0.5 0
    outer loop
      vertex -8.09017 5.87785 1.5
      vertex -9.13545 4.06737 0
      vertex -9.13545 4.06737 1.5
    endloop
  endfacet
  facet normal -0.406737 0.913545 0
    outer loop
      vertex -3.09017 9.51056 0
      vertex -5 8.66025 1.5
      vertex -3.09017 9.51056 1.5
    endloop
  endfacet
  facet normal -0.406737 0.913545 0
    outer loop
      vertex -5 8.66025 1.5
      vertex -3.09017 9.51056 0
      vertex -5 8.66025 0
    endloop
  endfacet
  facet normal 0.951057 -0.309017 0
    outer loop
      vertex 9.13545 -4.06737 1.5
      vertex 9.78148 -2.07912 0
      vertex 9.78148 -2.07912 1.5
    endloop
  endfacet
  facet normal 0.951057 -0.309017 0
    outer loop
      vertex 9.78148 -2.07912 0
      vertex 9.13545 -4.06737 1.5
      vertex 9.13545 -4.06737 0
    endloop
  endfacet
  facet normal 0.866026 0.5 0
    outer loop
      vertex 9.13545 4.06737 1.5
      vertex 8.09017 5.87785 0
      vertex 8.09017 5.87785 1.5
    endloop
  endfacet
  facet normal 0.866026 0.5 0
    outer loop
      vertex 8.09017 5.87785 0
      vertex 9.13545 4.06737 1.5
      vertex 9.13545 4.06737 0
    endloop
  endfacet
  facet normal 0.951057 0.309017 0
    outer loop
      vertex 9.78148 2.07912 1.5
      vertex 9.13545 4.06737 0
      vertex 9.13545 4.06737 1.5
    endloop
  endfacet
  facet normal 0.951057 0.309017 0
    outer loop
      vertex 9.13545 4.06737 0
      vertex 9.78148 2.07912 1.5
      vertex 9.78148 2.07912 0
    endloop
  endfacet
  facet normal 0.743145 0.669131 0
    outer loop
      vertex 8.09017 5.87785 1.5
      vertex 6.69131 7.43145 0
      vertex 6.69131 7.43145 1.5
    endloop
  endfacet
  facet normal 0.743145 0.669131 0
    outer loop
      vertex 6.69131 7.43145 0
      vertex 8.09017 5.87785 1.5
      vertex 8.09017 5.87785 0
    endloop
  endfacet
  facet normal 0.207911 0.978148 -0
    outer loop
      vertex 3.09017 9.51056 0
      vertex 1.04528 9.94522 1.5
      vertex 3.09017 9.51056 1.5
    endloop
  endfacet
  facet normal 0.207911 0.978148 0
    outer loop
      vertex 1.04528 9.94522 1.5
      vertex 3.09017 9.51056 0
      vertex 1.04528 9.94522 0
    endloop
  endfacet
  facet normal -0.951057 0.309017 0
    outer loop
      vertex -9.78148 2.07912 0
      vertex -9.13545 4.06737 1.5
      vertex -9.13545 4.06737 0
    endloop
  endfacet
  facet normal -0.951057 0.309017 0
    outer loop
      vertex -9.13545 4.06737 1.5
      vertex -9.78148 2.07912 0
      vertex -9.78148 2.07912 1.5
    endloop
  endfacet
  facet normal 0 0 1
    outer loop
      vertex 9.78148 2.07912 1.5
      vertex 4.89074 1.03956 1.5
      vertex 5 0 1.5
    endloop
  endfacet
  facet normal 0 0 1
    outer loop
      vertex 6.69131 7.43145 1.5
      vertex 4.56773 2.03368 1.5
      vertex 4.89074 1.03956 1.5
    endloop
  endfacet
  facet normal 0 0 1
    outer loop
      vertex 6.69131 7.43145 1.5
      vertex 4.04508 2.93893 1.5
      vertex 4.56773 2.03368 1.5
    endloop
  endfacet
  facet normal 0 0 1
    outer loop
      vertex 6.69131 7.43145 1.5
      vertex 3.34565 3.71572 1.5
      vertex 4.04508 2.93893 1.5
    endloop
  endfacet
  facet normal 0 0 1
    outer loop
      vertex 2.5 4.33013 1.5
      vertex 5 8.66025 1.5
      vertex 3.09017 9.51056 1.5
    endloop
  endfacet
  facet normal 0 0 1
    outer loop
      vertex 5 8.66025 1.5
      vertex 2.5 4.33013 1.5
      vertex 3.34565 3.71572 1.5
    endloop
  endfacet
  facet normal 0 0 1
    outer loop
      vertex 3.09017 9.51056 1.5
      vertex 1.54508 4.75528 1.5
      vertex 2.5 4.33013 1.5
    endloop
  endfacet
  facet normal 0 0 1
    outer loop
      vertex 1.04528 9.94522 1.5
      vertex 1.54508 4.75528 1.5
      vertex 3.09017 9.51056 1.5
    endloop
  endfacet
  facet normal 0 0 1
    outer loop
      vertex 1.04528 9.94522 1.5
      vertex 0.522642 4.97261 1.5
      vertex 1.54508 4.75528 1.5
    endloop
  endfacet
  facet normal 0 0 1
    outer loop
      vertex 1.04528 9.94522 1.5
      vertex -0.522642 4.97261 1.5
      vertex 0.522642 4.97261 1.5
    endloop
  endfacet
  facet normal -0 0 1
    outer loop
      vertex -1.04528 9.94522 1.5
      vertex -0.522642 4.97261 1.5
      vertex 1.04528 9.94522 1.5
    endloop
  endfacet
  facet normal 0 0 1
    outer loop
      vertex -1.04528 9.94522 1.5
      vertex -1.54508 4.75528 1.5
      vertex -0.522642 4.97261 1.5
    endloop
  endfacet
  facet normal -0 0 1
    outer loop
      vertex -3.09017 9.51056 1.5
      vertex -1.54508 4.75528 1.5
      vertex -1.04528 9.94522 1.5
    endloop
  endfacet
  facet normal 0 0 1
    outer loop
      vertex -1.54508 4.75528 1.5
      vertex -3.09017 9.51056 1.5
      vertex -2.5 4.33013 1.5
    endloop
  endfacet
  facet normal -0 0 1
    outer loop
      vertex -5 8.66025 1.5
      vertex -2.5 4.33013 1.5
      vertex -3.09017 9.51056 1.5
    endloop
  endfacet
  facet normal 0 0 1
    outer loop
      vertex -2.5 4.33013 1.5
      vertex -5 8.66025 1.5
      vertex -3.34565 3.71572 1.5
    endloop
  endfacet
  facet normal -0 0 1
    outer loop
      vertex -6.69131 7.43145 1.5
      vertex -3.34565 3.71572 1.5
      vertex -5 8.66025 1.5
    endloop
  endfacet
  facet normal 0 0 1
    outer loop
      vertex -3.34565 3.71572 1.5
      vertex -6.69131 7.43145 1.5
      vertex -4.04508 2.93893 1.5
    endloop
  endfacet
  facet normal -0 0 1
    outer loop
      vertex -8.09017 5.87785 1.5
      vertex -4.04508 2.93893 1.5
      vertex -6.69131 7.43145 1.5
    endloop
  endfacet
  facet normal 0 0 1
    outer loop
      vertex -4.04508 2.93893 1.5
      vertex -8.09017 5.87785 1.5
      vertex -4.56773 2.03368 1.5
    endloop
  endfacet
  facet normal -0 0 1
    outer loop
      vertex -9.13545 4.06737 1.5
      vertex -4.56773 2.03368 1.5
      vertex -8.09017 5.87785 1.5
    endloop
  endfacet
  facet normal 0 0 1
    outer loop
      vertex -4.56773 2.03368 1.5
      vertex -9.13545 4.06737 1.5
      vertex -4.89074 1.03956 1.5
    endloop
  endfacet
  facet normal 0 0 1
    outer loop
      vertex -5 0 1.5
      vertex -6.69131 -7.43145 1.5
      vertex -5 -8.66025 1.5
    endloop
  endfacet
  facet normal -0 0 1
    outer loop
      vertex -9.78148 2.07912 1.5
      vertex -4.89074 1.03956 1.5
      vertex -9.13545 4.06737 1.5
    endloop
  endfacet
  facet normal 0 0 1
    outer loop
      vertex -5 0 1.5
      vertex -8.09017 -5.87785 1.5
      vertex -6.69131 -7.43145 1.5
    endloop
  endfacet
  facet normal 0 0 1
    outer loop
      vertex -4.89074 1.03956 1.5
      vertex -9.78148 2.07912 1.5
      vertex -5 0 1.5
    endloop
  endfacet
  facet normal 0 0 1
    outer loop
      vertex -5 0 1.5
      vertex -9.13545 -4.06737 1.5
      vertex -8.09017 -5.87785 1.5
    endloop
  endfacet
  facet normal 0 0 1
    outer loop
      vertex -10 0 1.5
      vertex -5 0 1.5
      vertex -9.78148 2.07912 1.5
    endloop
  endfacet
  facet normal 0 0 1
    outer loop
      vertex -5 0 1.5
      vertex -9.78148 -2.07912 1.5
      vertex -9.13545 -4.06737 1.5
    endloop
  endfacet
  facet normal 0 0 1
    outer loop
      vertex -5 0 1.5
      vertex -10 0 1.5
      vertex -9.78148 -2.07912 1.5
    endloop
  endfacet
  facet normal 0 0 1
    outer loop
      vertex 5 0 1.5
      vertex 10 0 1.5
      vertex 9.78148 2.07912 1.5
    endloop
  endfacet
  facet normal 0 0 1
    outer loop
      vertex 4.89074 1.03956 1.5
      vertex 9.78148 2.07912 1.5
      vertex 9.13545 4.06737 1.5
    endloop
  endfacet
  facet normal 0 0 1
    outer loop
      vertex 10 0 1.5
      vertex 5 0 1.5
      vertex 9.78148 -2.07912 1.5
    endloop
  endfacet
  facet normal 0 0 1
    outer loop
      vertex 4.89074 1.03956 1.5
      vertex 9.13545 4.06737 1.5
      vertex 8.09017 5.87785 1.5
    endloop
  endfacet
  facet normal -0 0 1
    outer loop
      vertex 4.89074 -1.03956 1.5
      vertex 9.78148 -2.07912 1.5
      vertex 5 0 1.5
    endloop
  endfacet
  facet normal 0 0 1
    outer loop
      vertex 4.89074 1.03956 1.5
      vertex 8.09017 5.87785 1.5
      vertex 6.69131 7.43145 1.5
    endloop
  endfacet
  facet normal 0 0 1
    outer loop
      vertex 9.78148 -2.07912 1.5
      vertex 4.89074 -1.03956 1.5
      vertex 9.13545 -4.06737 1.5
    endloop
  endfacet
  facet normal 0 0 1
    outer loop
      vertex 3.34565 3.71572 1.5
      vertex 6.69131 7.43145 1.5
      vertex 5 8.66025 1.5
    endloop
  endfacet
  facet normal -0 0 1
    outer loop
      vertex 4.56773 -2.03368 1.5
      vertex 9.13545 -4.06737 1.5
      vertex 4.89074 -1.03956 1.5
    endloop
  endfacet
  facet normal 0 0 1
    outer loop
      vertex 9.13545 -4.06737 1.5
      vertex 4.56773 -2.03368 1.5
      vertex 8.09017 -5.87785 1.5
    endloop
  endfacet
  facet normal -0 0 1
    outer loop
      vertex 4.04508 -2.93893 1.5
      vertex 8.09017 -5.87785 1.5
      vertex 4.56773 -2.03368 1.5
    endloop
  endfacet
  facet normal 0 0 1
    outer loop
      vertex 8.09017 -5.87785 1.5
      vertex 4.04508 -2.93893 1.5
      vertex 6.69131 -7.43145 1.5
    endloop
  endfacet
  facet normal -0 0 1
    outer loop
      vertex 3.34565 -3.71572 1.5
      vertex 6.69131 -7.43145 1.5
      vertex 4.04508 -2.93893 1.5
    endloop
  endfacet
  facet normal 0 0 1
    outer loop
      vertex 6.69131 -7.43145 1.5
      vertex 3.34565 -3.71572 1.5
      vertex 5 -8.66025 1.5
    endloop
  endfacet
  facet normal -0 0 1
    outer loop
      vertex 2.5 -4.33013 1.5
      vertex 5 -8.66025 1.5
      vertex 3.34565 -3.71572 1.5
    endloop
  endfacet
  facet normal 0 0 1
    outer loop
      vertex 5 -8.66025 1.5
      vertex 2.5 -4.33013 1.5
      vertex 3.09017 -9.51056 1.5
    endloop
  endfacet
  facet normal -0 0 1
    outer loop
      vertex 1.54508 -4.75528 1.5
      vertex 3.09017 -9.51056 1.5
      vertex 2.5 -4.33013 1.5
    endloop
  endfacet
  facet normal 0 0 1
    outer loop
      vertex 1.54508 -4.75528 1.5
      vertex 1.04528 -9.94522 1.5
      vertex 3.09017 -9.51056 1.5
    endloop
  endfacet
  facet normal -0 0 1
    outer loop
      vertex 0.522642 -4.97261 1.5
      vertex 1.04528 -9.94522 1.5
      vertex 1.54508 -4.75528 1.5
    endloop
  endfacet
  facet normal -0 0 1
    outer loop
      vertex -0.522642 -4.97261 1.5
      vertex 1.04528 -9.94522 1.5
      vertex 0.522642 -4.97261 1.5
    endloop
  endfacet
  facet normal 0 0 1
    outer loop
      vertex -0.522642 -4.97261 1.5
      vertex -1.04528 -9.94522 1.5
      vertex 1.04528 -9.94522 1.5
    endloop
  endfacet
  facet normal 0 0 1
    outer loop
      vertex -1.54508 -4.75528 1.5
      vertex -1.04528 -9.94522 1.5
      vertex -0.522642 -4.97261 1.5
    endloop
  endfacet
  facet normal 0 0 1
    outer loop
      vertex -3.09017 -9.51056 1.5
      vertex -1.54508 -4.75528 1.5
      vertex -2.5 -4.33013 1.5
    endloop
  endfacet
  facet normal 0 0 1
    outer loop
      vertex -1.54508 -4.75528 1.5
      vertex -3.09017 -9.51056 1.5
      vertex -1.04528 -9.94522 1.5
    endloop
  endfacet
  facet normal 0 0 1
    outer loop
      vertex -5 -8.66025 1.5
      vertex -2.5 -4.33013 1.5
      vertex -3.34565 -3.71572 1.5
    endloop
  endfacet
  facet normal 0 0 1
    outer loop
      vertex -5 -8.66025 1.5
      vertex -3.34565 -3.71572 1.5
      vertex -4.04508 -2.93893 1.5
    endloop
  endfacet
  facet normal 0 0 1
    outer loop
      vertex -5 -8.66025 1.5
      vertex -4.04508 -2.93893 1.5
      vertex -4.56773 -2.03368 1.5
    endloop
  endfacet
  facet normal 0 0 1
    outer loop
      vertex -5 -8.66025 1.5
      vertex -4.56773 -2.03368 1.5
      vertex -4.89074 -1.03956 1.5
    endloop
  endfacet
  facet normal 0 0 1
    outer loop
      vertex -2.5 -4.33013 1.5
      vertex -5 -8.66025 1.5
      vertex -3.09017 -9.51056 1.5
    endloop
  endfacet
  facet normal 0 0 1
    outer loop
      vertex -5 -8.66025 1.5
      vertex -4.89074 -1.03956 1.5
      vertex -5 0 1.5
    endloop
  endfacet
  facet normal -0.587785 0.809017 0
    outer loop
      vertex -5 8.66025 0
      vertex -6.69131 7.43145 1.5
      vertex -5 8.66025 1.5
    endloop
  endfacet
  facet normal -0.587785 0.809017 0
    outer loop
      vertex -6.69131 7.43145 1.5
      vertex -5 8.66025 0
      vertex -6.69131 7.43145 0
    endloop
  endfacet
  facet normal -0.207911 0.978148 0
    outer loop
      vertex -1.04528 9.94522 0
      vertex -3.09017 9.51056 1.5
      vertex -1.04528 9.94522 1.5
    endloop
  endfacet
  facet normal -0.207911 0.978148 0
    outer loop
      vertex -3.09017 9.51056 1.5
      vertex -1.04528 9.94522 0
      vertex -3.09017 9.51056 0
    endloop
  endfacet
  facet normal 0.994522 -0.104529 0
    outer loop
      vertex 9.78148 -2.07912 1.5
      vertex 10 0 0
      vertex 10 0 1.5
    endloop
  endfacet
  facet normal 0.994522 -0.104529 0
    outer loop
      vertex 10 0 0
      vertex 9.78148 -2.07912 1.5
      vertex 9.78148 -2.07912 0
    endloop
  endfacet
  facet normal 0 0 -1
    outer loop
      vertex 9.78148 -2.07912 0
      vertex 9.78148 2.07912 0
      vertex 10 0 0
    endloop
  endfacet
  facet normal 0 0 -1
    outer loop
      vertex 9.13545 -4.06737 0
      vertex 9.78148 2.07912 0
      vertex 9.78148 -2.07912 0
    endloop
  endfacet
  facet normal 0 0 -1
    outer loop
      vertex 9.13545 -4.06737 0
      vertex 9.13545 4.06737 0
      vertex 9.78148 2.07912 0
    endloop
  endfacet
  facet normal 0 0 -1
    outer loop
      vertex 8.09017 -5.87785 0
      vertex 9.13545 4.06737 0
      vertex 9.13545 -4.06737 0
    endloop
  endfacet
  facet normal 0 0 -1
    outer loop
      vertex 8.09017 -5.87785 0
      vertex 8.09017 5.87785 0
      vertex 9.13545 4.06737 0
    endloop
  endfacet
  facet normal 0 0 -1
    outer loop
      vertex 6.69131 -7.43145 0
      vertex 8.09017 5.87785 0
      vertex 8.09017 -5.87785 0
    endloop
  endfacet
  facet normal 0 0 -1
    outer loop
      vertex 6.69131 -7.43145 0
      vertex 6.69131 7.43145 0
      vertex 8.09017 5.87785 0
    endloop
  endfacet
  facet normal 0 0 -1
    outer loop
      vertex 5 -8.66025 0
      vertex 6.69131 7.43145 0
      vertex 6.69131 -7.43145 0
    endloop
  endfacet
  facet normal 0 0 -1
    outer loop
      vertex 5 -8.66025 0
      vertex 5 8.66025 0
      vertex 6.69131 7.43145 0
    endloop
  endfacet
  facet normal 0 0 -1
    outer loop
      vertex 3.09017 -9.51056 0
      vertex 5 8.66025 0
      vertex 5 -8.66025 0
    endloop
  endfacet
  facet normal 0 0 -1
    outer loop
      vertex 3.09017 -9.51056 0
      vertex 3.09017 9.51056 0
      vertex 5 8.66025 0
    endloop
  endfacet
  facet normal 0 0 -1
    outer loop
      vertex 1.04528 -9.94522 0
      vertex 3.09017 9.51056 0
      vertex 3.09017 -9.51056 0
    endloop
  endfacet
  facet normal 0 0 -1
    outer loop
      vertex 1.04528 -9.94522 0
      vertex 1.04528 9.94522 0
      vertex 3.09017 9.51056 0
    endloop
  endfacet
  facet normal 0 0 -1
    outer loop
      vertex -1.04528 -9.94522 0
      vertex 1.04528 9.94522 0
      vertex 1.04528 -9.94522 0
    endloop
  endfacet
  facet normal 0 0 -1
    outer loop
      vertex -1.04528 -9.94522 0
      vertex -1.04528 9.94522 0
      vertex 1.04528 9.94522 0
    endloop
  endfacet
  facet normal 0 0 -1
    outer loop
      vertex -3.09017 -9.51056 0
      vertex -1.04528 9.94522 0
      vertex -1.04528 -9.94522 0
    endloop
  endfacet
  facet normal 0 0 -1
    outer loop
      vertex -3.09017 -9.51056 0
      vertex -3.09017 9.51056 0
      vertex -1.04528 9.94522 0
    endloop
  endfacet
  facet normal 0 0 -1
    outer loop
      vertex -3.09017 -9.51056 0
      vertex -5 8.66025 0
      vertex -3.09017 9.51056 0
    endloop
  endfacet
  facet normal 0 0 -1
    outer loop
      vertex -5 -8.66025 0
      vertex -5 8.66025 0
      vertex -3.09017 -9.51056 0
    endloop
  endfacet
  facet normal 0 0 -1
    outer loop
      vertex -6.69131 -7.43145 0
      vertex -5 8.66025 0
      vertex -5 -8.66025 0
    endloop
  endfacet
  facet normal 0 0 -1
    outer loop
      vertex -6.69131 -7.43145 0
      vertex -6.69131 7.43145 0
      vertex -5 8.66025 0
    endloop
  endfacet
  facet normal 0 0 -1
    outer loop
      vertex -8.09017 -5.87785 0
      vertex -6.69131 7.43145 0
      vertex -6.69131 -7.43145 0
    endloop
  endfacet
  facet normal 0 0 -1
    outer loop
      vertex -8.09017 -5.87785 0
      vertex -8.09017 5.87785 0
      vertex -6.69131 7.43145 0
    endloop
  endfacet
  facet normal 0 0 -1
    outer loop
      vertex -9.13545 -4.06737 0
      vertex -8.09017 5.87785 0
      vertex -8.09017 -5.87785 0
    endloop
  endfacet
  facet normal 0 0 -1
    outer loop
      vertex -9.13545 -4.06737 0
      vertex -9.13545 4.06737 0
      vertex -8.09017 5.87785 0
    endloop
  endfacet
  facet normal 0 0 -1
    outer loop
      vertex -9.78148 -2.07912 0
      vertex -9.13545 4.06737 0
      vertex -9.13545 -4.06737 0
    endloop
  endfacet
  facet normal 0 0 -1
    outer loop
      vertex -9.78148 -2.07912 0
      vertex -9.78148 2.07912 0
      vertex -9.13545 4.06737 0
    endloop
  endfacet
  facet normal 0 -0 -1
    outer loop
      vertex -9.78148 2.07912 0
      vertex -9.78148 -2.07912 0
      vertex -10 0 0
    endloop
  endfacet
  facet normal 0.207911 -0.978148 0
    outer loop
      vertex 1.04528 -9.94522 0
      vertex 3.09017 -9.51056 1.5
      vertex 1.04528 -9.94522 1.5
    endloop
  endfacet
  facet normal 0.207911 -0.978148 0
    outer loop
      vertex 3.09017 -9.51056 1.5
      vertex 1.04528 -9.94522 0
      vertex 3.09017 -9.51056 0
    endloop
  endfacet
  facet normal 0.866026 -0.5 0
    outer loop
      vertex 8.09017 -5.87785 1.5
      vertex 9.13545 -4.06737 0
      vertex 9.13545 -4.06737 1.5
    endloop
  endfacet
  facet normal 0.866026 -0.5 0
    outer loop
      vertex 9.13545 -4.06737 0
      vertex 8.09017 -5.87785 1.5
      vertex 8.09017 -5.87785 0
    endloop
  endfacet
  facet normal -0.866026 -0.5 0
    outer loop
      vertex -8.09017 -5.87785 0
      vertex -9.13545 -4.06737 1.5
      vertex -9.13545 -4.06737 0
    endloop
  endfacet
  facet normal -0.866026 -0.5 0
    outer loop
      vertex -9.13545 -4.06737 1.5
      vertex -8.09017 -5.87785 0
      vertex -8.09017 -5.87785 1.5
    endloop
  endfacet
  facet normal 0.587785 -0.809017 0
    outer loop
      vertex 5 -8.66025 0
      vertex 6.69131 -7.43145 1.5
      vertex 5 -8.66025 1.5
    endloop
  endfacet
  facet normal 0.587785 -0.809017 0
    outer loop
      vertex 6.69131 -7.43145 1.5
      vertex 5 -8.66025 0
      vertex 6.69131 -7.43145 0
    endloop
  endfacet
  facet normal 0.406737 -0.913545 0
    outer loop
      vertex 3.09017 -9.51056 0
      vertex 5 -8.66025 1.5
      vertex 3.09017 -9.51056 1.5
    endloop
  endfacet
  facet normal 0.406737 -0.913545 0
    outer loop
      vertex 5 -8.66025 1.5
      vertex 3.09017 -9.51056 0
      vertex 5 -8.66025 0
    endloop
  endfacet
  facet normal -0.207911 -0.978148 0
    outer loop
      vertex -3.09017 -9.51056 0
      vertex -1.04528 -9.94522 1.5
      vertex -3.09017 -9.51056 1.5
    endloop
  endfacet
  facet normal -0.207911 -0.978148 -0
    outer loop
      vertex -1.04528 -9.94522 1.5
      vertex -3.09017 -9.51056 0
      vertex -1.04528 -9.94522 0
    endloop
  endfacet
  facet normal -0.743145 -0.669131 0
    outer loop
      vertex -6.69131 -7.43145 0
      vertex -8.09017 -5.87785 1.5
      vertex -8.09017 -5.87785 0
    endloop
  endfacet
  facet normal -0.743145 -0.669131 0
    outer loop
      vertex -8.09017 -5.87785 1.5
      vertex -6.69131 -7.43145 0
      vertex -6.69131 -7.43145 1.5
    endloop
  endfacet
  facet normal -0.951057 -0.309017 0
    outer loop
      vertex -9.13545 -4.06737 0
      vertex -9.78148 -2.07912 1.5
      vertex -9.78148 -2.07912 0
    endloop
  endfacet
  facet normal -0.951057 -0.309017 0
    outer loop
      vertex -9.78148 -2.07912 1.5
      vertex -9.13545 -4.06737 0
      vertex -9.13545 -4.06737 1.5
    endloop
  endfacet
  facet normal -0.994522 -0.104529 0
    outer loop
      vertex -9.78148 -2.07912 0
      vertex -10 0 1.5
      vertex -10 0 0
    endloop
  endfacet
  facet normal -0.994522 -0.104529 0
    outer loop
      vertex -10 0 1.5
      vertex -9.78148 -2.07912 0
      vertex -9.78148 -2.07912 1.5
    endloop
  endfacet
  facet normal 0.743145 -0.669131 0
    outer loop
      vertex 6.69131 -7.43145 1.5
      vertex 8.09017 -5.87785 0
      vertex 8.09017 -5.87785 1.5
    endloop
  endfacet
  facet normal 0.743145 -0.669131 0
    outer loop
      vertex 8.09017 -5.87785 0
      vertex 6.69131 -7.43145 1.5
      vertex 6.69131 -7.43145 0
    endloop
  endfacet
  facet normal -0.406737 -0.913545 0
    outer loop
      vertex -5 -8.66025 0
      vertex -3.09017 -9.51056 1.5
      vertex -5 -8.66025 1.5
    endloop
  endfacet
  facet normal -0.406737 -0.913545 -0
    outer loop
      vertex -3.09017 -9.51056 1.5
      vertex -5 -8.66025 0
      vertex -3.09017 -9.51056 0
    endloop
  endfacet
  facet normal -0.587785 -0.809017 0
    outer loop
      vertex -6.69131 -7.43145 0
      vertex -5 -8.66025 1.5
      vertex -6.69131 -7.43145 1.5
    endloop
  endfacet
  facet normal -0.587785 -0.809017 -0
    outer loop
      vertex -5 -8.66025 1.5
      vertex -6.69131 -7.43145 0
      vertex -5 -8.66025 0
    endloop
  endfacet
  facet normal 0.866025 0.5 0
    outer loop
      vertex 4.56773 2.03368 2.2
      vertex 4.04508 2.93893 1.5
      vertex 4.04508 2.93893 2.2
    endloop
  endfacet
  facet normal 0.866025 0.5 0
    outer loop
      vertex 4.04508 2.93893 1.5
      vertex 4.56773 2.03368 2.2
      vertex 4.56773 2.03368 1.5
    endloop
  endfacet
  facet normal -0.951057 0.309017 0
    outer loop
      vertex -4.89074 1.03956 1.5
      vertex -4.56773 2.03368 2.2
      vertex -4.56773 2.03368 1.5
    endloop
  endfacet
  facet normal -0.951057 0.309017 0
    outer loop
      vertex -4.56773 2.03368 2.2
      vertex -4.89074 1.03956 1.5
      vertex -4.89074 1.03956 2.2
    endloop
  endfacet
  facet normal 0.743145 0.669131 0
    outer loop
      vertex 4.04508 2.93893 2.2
      vertex 3.34565 3.71572 1.5
      vertex 3.34565 3.71572 2.2
    endloop
  endfacet
  facet normal 0.743145 0.669131 0
    outer loop
      vertex 3.34565 3.71572 1.5
      vertex 4.04508 2.93893 2.2
      vertex 4.04508 2.93893 1.5
    endloop
  endfacet
  facet normal 0.406737 0.913545 -0
    outer loop
      vertex 2.5 4.33013 1.5
      vertex 1.54508 4.75528 2.2
      vertex 2.5 4.33013 2.2
    endloop
  endfacet
  facet normal 0.406737 0.913545 0
    outer loop
      vertex 1.54508 4.75528 2.2
      vertex 2.5 4.33013 1.5
      vertex 1.54508 4.75528 1.5
    endloop
  endfacet
  facet normal -0.207911 0.978148 0
    outer loop
      vertex -0.522642 4.97261 1.5
      vertex -1.54508 4.75528 2.2
      vertex -0.522642 4.97261 2.2
    endloop
  endfacet
  facet normal -0.207911 0.978148 0
    outer loop
      vertex -1.54508 4.75528 2.2
      vertex -0.522642 4.97261 1.5
      vertex -1.54508 4.75528 1.5
    endloop
  endfacet
  facet normal -0.866025 0.5 0
    outer loop
      vertex -4.56773 2.03368 1.5
      vertex -4.04508 2.93893 2.2
      vertex -4.04508 2.93893 1.5
    endloop
  endfacet
  facet normal -0.866025 0.5 0
    outer loop
      vertex -4.04508 2.93893 2.2
      vertex -4.56773 2.03368 1.5
      vertex -4.56773 2.03368 2.2
    endloop
  endfacet
  facet normal 0.994522 -0.104529 0
    outer loop
      vertex 4.89074 -1.03956 2.2
      vertex 5 0 1.5
      vertex 5 0 2.2
    endloop
  endfacet
  facet normal 0.994522 -0.104529 0
    outer loop
      vertex 5 0 1.5
      vertex 4.89074 -1.03956 2.2
      vertex 4.89074 -1.03956 1.5
    endloop
  endfacet
  facet normal 0.951057 0.309017 0
    outer loop
      vertex 4.89074 1.03956 2.2
      vertex 4.56773 2.03368 1.5
      vertex 4.56773 2.03368 2.2
    endloop
  endfacet
  facet normal 0.951057 0.309017 0
    outer loop
      vertex 4.56773 2.03368 1.5
      vertex 4.89074 1.03956 2.2
      vertex 4.89074 1.03956 1.5
    endloop
  endfacet
  facet normal 0.587785 0.809017 -0
    outer loop
      vertex 3.34565 3.71572 1.5
      vertex 2.5 4.33013 2.2
      vertex 3.34565 3.71572 2.2
    endloop
  endfacet
  facet normal 0.587785 0.809017 0
    outer loop
      vertex 2.5 4.33013 2.2
      vertex 3.34565 3.71572 1.5
      vertex 2.5 4.33013 1.5
    endloop
  endfacet
  facet normal 0 1 -0
    outer loop
      vertex 0.522642 4.97261 1.5
      vertex -0.522642 4.97261 2.2
      vertex 0.522642 4.97261 2.2
    endloop
  endfacet
  facet normal 0 1 0
    outer loop
      vertex -0.522642 4.97261 2.2
      vertex 0.522642 4.97261 1.5
      vertex -0.522642 4.97261 1.5
    endloop
  endfacet
  facet normal -0.994522 0.104529 0
    outer loop
      vertex -5 0 1.5
      vertex -4.89074 1.03956 2.2
      vertex -4.89074 1.03956 1.5
    endloop
  endfacet
  facet normal -0.994522 0.104529 0
    outer loop
      vertex -4.89074 1.03956 2.2
      vertex -5 0 1.5
      vertex -5 0 2.2
    endloop
  endfacet
  facet normal -0.743145 0.669131 0
    outer loop
      vertex -4.04508 2.93893 1.5
      vertex -3.34565 3.71572 2.2
      vertex -3.34565 3.71572 1.5
    endloop
  endfacet
  facet normal -0.743145 0.669131 0
    outer loop
      vertex -3.34565 3.71572 2.2
      vertex -4.04508 2.93893 1.5
      vertex -4.04508 2.93893 2.2
    endloop
  endfacet
  facet normal -0.406737 0.913545 0
    outer loop
      vertex -1.54508 4.75528 1.5
      vertex -2.5 4.33013 2.2
      vertex -1.54508 4.75528 2.2
    endloop
  endfacet
  facet normal -0.406737 0.913545 0
    outer loop
      vertex -2.5 4.33013 2.2
      vertex -1.54508 4.75528 1.5
      vertex -2.5 4.33013 1.5
    endloop
  endfacet
  facet normal -0.587785 0.809017 0
    outer loop
      vertex -2.5 4.33013 1.5
      vertex -3.34565 3.71572 2.2
      vertex -2.5 4.33013 2.2
    endloop
  endfacet
  facet normal -0.587785 0.809017 0
    outer loop
      vertex -3.34565 3.71572 2.2
      vertex -2.5 4.33013 1.5
      vertex -3.34565 3.71572 1.5
    endloop
  endfacet
  facet normal 0.994522 0.104529 0
    outer loop
      vertex 5 0 2.2
      vertex 4.89074 1.03956 1.5
      vertex 4.89074 1.03956 2.2
    endloop
  endfacet
  facet normal 0.994522 0.104529 0
    outer loop
      vertex 4.89074 1.03956 1.5
      vertex 5 0 2.2
      vertex 5 0 1.5
    endloop
  endfacet
  facet normal 0.951057 -0.309017 0
    outer loop
      vertex 4.56773 -2.03368 2.2
      vertex 4.89074 -1.03956 1.5
      vertex 4.89074 -1.03956 2.2
    endloop
  endfacet
  facet normal 0.951057 -0.309017 0
    outer loop
      vertex 4.89074 -1.03956 1.5
      vertex 4.56773 -2.03368 2.2
      vertex 4.56773 -2.03368 1.5
    endloop
  endfacet
  facet normal -0.587785 -0.809017 0
    outer loop
      vertex -3.34565 -3.71572 1.5
      vertex -2.5 -4.33013 2.2
      vertex -3.34565 -3.71572 2.2
    endloop
  endfacet
  facet normal -0.587785 -0.809017 -0
    outer loop
      vertex -2.5 -4.33013 2.2
      vertex -3.34565 -3.71572 1.5
      vertex -2.5 -4.33013 1.5
    endloop
  endfacet
  facet normal -0.866025 -0.5 0
    outer loop
      vertex -4.04508 -2.93893 1.5
      vertex -4.56773 -2.03368 2.2
      vertex -4.56773 -2.03368 1.5
    endloop
  endfacet
  facet normal -0.866025 -0.5 0
    outer loop
      vertex -4.56773 -2.03368 2.2
      vertex -4.04508 -2.93893 1.5
      vertex -4.04508 -2.93893 2.2
    endloop
  endfacet
  facet normal 0.587785 -0.809017 0
    outer loop
      vertex 2.5 -4.33013 1.5
      vertex 3.34565 -3.71572 2.2
      vertex 2.5 -4.33013 2.2
    endloop
  endfacet
  facet normal 0.587785 -0.809017 0
    outer loop
      vertex 3.34565 -3.71572 2.2
      vertex 2.5 -4.33013 1.5
      vertex 3.34565 -3.71572 1.5
    endloop
  endfacet
  facet normal 0.207911 0.978148 -0
    outer loop
      vertex 1.54508 4.75528 1.5
      vertex 0.522642 4.97261 2.2
      vertex 1.54508 4.75528 2.2
    endloop
  endfacet
  facet normal 0.207911 0.978148 0
    outer loop
      vertex 0.522642 4.97261 2.2
      vertex 1.54508 4.75528 1.5
      vertex 0.522642 4.97261 1.5
    endloop
  endfacet
  facet normal 0 0 1
    outer loop
      vertex 4 0 2.2
      vertex 5 0 2.2
      vertex 4.89074 1.03956 2.2
    endloop
  endfacet
  facet normal 0 0 1
    outer loop
      vertex 3.91259 0.831646 2.2
      vertex 4.89074 1.03956 2.2
      vertex 4.56773 2.03368 2.2
    endloop
  endfacet
  facet normal 0 0 1
    outer loop
      vertex 5 0 2.2
      vertex 4 0 2.2
      vertex 4.89074 -1.03956 2.2
    endloop
  endfacet
  facet normal 0 0 1
    outer loop
      vertex 3.65418 1.62695 2.2
      vertex 4.56773 2.03368 2.2
      vertex 4.04508 2.93893 2.2
    endloop
  endfacet
  facet normal -0 0 1
    outer loop
      vertex 3.91259 -0.831646 2.2
      vertex 4.89074 -1.03956 2.2
      vertex 4 0 2.2
    endloop
  endfacet
  facet normal 0 0 1
    outer loop
      vertex 4.89074 -1.03956 2.2
      vertex 3.91259 -0.831646 2.2
      vertex 4.56773 -2.03368 2.2
    endloop
  endfacet
  facet normal 0 0 1
    outer loop
      vertex 4.89074 1.03956 2.2
      vertex 3.91259 0.831646 2.2
      vertex 4 0 2.2
    endloop
  endfacet
  facet normal 0 0 1
    outer loop
      vertex 4.56773 2.03368 2.2
      vertex 3.65418 1.62695 2.2
      vertex 3.91259 0.831646 2.2
    endloop
  endfacet
  facet normal 0 0 1
    outer loop
      vertex 3.23607 2.35114 2.2
      vertex 4.04508 2.93893 2.2
      vertex 3.34565 3.71572 2.2
    endloop
  endfacet
  facet normal 0 0 1
    outer loop
      vertex 4.04508 2.93893 2.2
      vertex 3.23607 2.35114 2.2
      vertex 3.65418 1.62695 2.2
    endloop
  endfacet
  facet normal 0 0 1
    outer loop
      vertex 3.34565 3.71572 2.2
      vertex 2.67652 2.97258 2.2
      vertex 3.23607 2.35114 2.2
    endloop
  endfacet
  facet normal 0 0 1
    outer loop
      vertex 2.5 4.33013 2.2
      vertex 2.67652 2.97258 2.2
      vertex 3.34565 3.71572 2.2
    endloop
  endfacet
  facet normal 0 0 1
    outer loop
      vertex 2.5 4.33013 2.2
      vertex 2 3.4641 2.2
      vertex 2.67652 2.97258 2.2
    endloop
  endfacet
  facet normal 0 0 1
    outer loop
      vertex 1.54508 4.75528 2.2
      vertex 2 3.4641 2.2
      vertex 2.5 4.33013 2.2
    endloop
  endfacet
  facet normal 0 0 1
    outer loop
      vertex 1.54508 4.75528 2.2
      vertex 1.23607 3.80423 2.2
      vertex 2 3.4641 2.2
    endloop
  endfacet
  facet normal 0 0 1
    outer loop
      vertex 0.522642 4.97261 2.2
      vertex 1.23607 3.80423 2.2
      vertex 1.54508 4.75528 2.2
    endloop
  endfacet
  facet normal 0 0 1
    outer loop
      vertex 0.522642 4.97261 2.2
      vertex 0.418114 3.97809 2.2
      vertex 1.23607 3.80423 2.2
    endloop
  endfacet
  facet normal 0 0 1
    outer loop
      vertex 0.522642 4.97261 2.2
      vertex -0.418114 3.97809 2.2
      vertex 0.418114 3.97809 2.2
    endloop
  endfacet
  facet normal -0 0 1
    outer loop
      vertex -0.522642 4.97261 2.2
      vertex -0.418114 3.97809 2.2
      vertex 0.522642 4.97261 2.2
    endloop
  endfacet
  facet normal 0 0 1
    outer loop
      vertex -0.522642 4.97261 2.2
      vertex -1.23607 3.80423 2.2
      vertex -0.418114 3.97809 2.2
    endloop
  endfacet
  facet normal -0 0 1
    outer loop
      vertex -1.54508 4.75528 2.2
      vertex -1.23607 3.80423 2.2
      vertex -0.522642 4.97261 2.2
    endloop
  endfacet
  facet normal 0 0 1
    outer loop
      vertex -1.54508 4.75528 2.2
      vertex -2 3.4641 2.2
      vertex -1.23607 3.80423 2.2
    endloop
  endfacet
  facet normal -0 0 1
    outer loop
      vertex -2.5 4.33013 2.2
      vertex -2 3.4641 2.2
      vertex -1.54508 4.75528 2.2
    endloop
  endfacet
  facet normal 0 0 1
    outer loop
      vertex -2.5 4.33013 2.2
      vertex -2.67652 2.97258 2.2
      vertex -2 3.4641 2.2
    endloop
  endfacet
  facet normal -0 0 1
    outer loop
      vertex -3.34565 3.71572 2.2
      vertex -2.67652 2.97258 2.2
      vertex -2.5 4.33013 2.2
    endloop
  endfacet
  facet normal 0 0 1
    outer loop
      vertex -2.67652 2.97258 2.2
      vertex -3.34565 3.71572 2.2
      vertex -3.23607 2.35114 2.2
    endloop
  endfacet
  facet normal -0 0 1
    outer loop
      vertex -4.04508 2.93893 2.2
      vertex -3.23607 2.35114 2.2
      vertex -3.34565 3.71572 2.2
    endloop
  endfacet
  facet normal 0 0 1
    outer loop
      vertex -3.23607 2.35114 2.2
      vertex -4.04508 2.93893 2.2
      vertex -3.65418 1.62695 2.2
    endloop
  endfacet
  facet normal 0 0 1
    outer loop
      vertex -3.65418 1.62695 2.2
      vertex -4.56773 2.03368 2.2
      vertex -3.91259 0.831646 2.2
    endloop
  endfacet
  facet normal -0 0 1
    outer loop
      vertex -4.56773 2.03368 2.2
      vertex -3.65418 1.62695 2.2
      vertex -4.04508 2.93893 2.2
    endloop
  endfacet
  facet normal -0 0 1
    outer loop
      vertex 3.65418 -1.62695 2.2
      vertex 4.56773 -2.03368 2.2
      vertex 3.91259 -0.831646 2.2
    endloop
  endfacet
  facet normal 0 0 1
    outer loop
      vertex 4.56773 -2.03368 2.2
      vertex 3.65418 -1.62695 2.2
      vertex 4.04508 -2.93893 2.2
    endloop
  endfacet
  facet normal -0 0 1
    outer loop
      vertex 3.23607 -2.35114 2.2
      vertex 4.04508 -2.93893 2.2
      vertex 3.65418 -1.62695 2.2
    endloop
  endfacet
  facet normal 0 0 1
    outer loop
      vertex 4.04508 -2.93893 2.2
      vertex 3.23607 -2.35114 2.2
      vertex 3.34565 -3.71572 2.2
    endloop
  endfacet
  facet normal -0 0 1
    outer loop
      vertex 2.67652 -2.97258 2.2
      vertex 3.34565 -3.71572 2.2
      vertex 3.23607 -2.35114 2.2
    endloop
  endfacet
  facet normal 0 0 1
    outer loop
      vertex 2.67652 -2.97258 2.2
      vertex 2.5 -4.33013 2.2
      vertex 3.34565 -3.71572 2.2
    endloop
  endfacet
  facet normal -0 0 1
    outer loop
      vertex 2 -3.4641 2.2
      vertex 2.5 -4.33013 2.2
      vertex 2.67652 -2.97258 2.2
    endloop
  endfacet
  facet normal 0 0 1
    outer loop
      vertex 2 -3.4641 2.2
      vertex 1.54508 -4.75528 2.2
      vertex 2.5 -4.33013 2.2
    endloop
  endfacet
  facet normal -0 0 1
    outer loop
      vertex 1.23607 -3.80423 2.2
      vertex 1.54508 -4.75528 2.2
      vertex 2 -3.4641 2.2
    endloop
  endfacet
  facet normal 0 0 1
    outer loop
      vertex 1.23607 -3.80423 2.2
      vertex 0.522642 -4.97261 2.2
      vertex 1.54508 -4.75528 2.2
    endloop
  endfacet
  facet normal -0 0 1
    outer loop
      vertex 0.418114 -3.97809 2.2
      vertex 0.522642 -4.97261 2.2
      vertex 1.23607 -3.80423 2.2
    endloop
  endfacet
  facet normal -0 0 1
    outer loop
      vertex -0.418114 -3.97809 2.2
      vertex 0.522642 -4.97261 2.2
      vertex 0.418114 -3.97809 2.2
    endloop
  endfacet
  facet normal 0 0 1
    outer loop
      vertex -0.418114 -3.97809 2.2
      vertex -0.522642 -4.97261 2.2
      vertex 0.522642 -4.97261 2.2
    endloop
  endfacet
  facet normal 0 0 1
    outer loop
      vertex -1.23607 -3.80423 2.2
      vertex -0.522642 -4.97261 2.2
      vertex -0.418114 -3.97809 2.2
    endloop
  endfacet
  facet normal 0 0 1
    outer loop
      vertex -1.23607 -3.80423 2.2
      vertex -1.54508 -4.75528 2.2
      vertex -0.522642 -4.97261 2.2
    endloop
  endfacet
  facet normal 0 0 1
    outer loop
      vertex -2 -3.4641 2.2
      vertex -1.54508 -4.75528 2.2
      vertex -1.23607 -3.80423 2.2
    endloop
  endfacet
  facet normal 0 0 1
    outer loop
      vertex -2 -3.4641 2.2
      vertex -2.5 -4.33013 2.2
      vertex -1.54508 -4.75528 2.2
    endloop
  endfacet
  facet normal 0 0 1
    outer loop
      vertex -2.67652 -2.97258 2.2
      vertex -2.5 -4.33013 2.2
      vertex -2 -3.4641 2.2
    endloop
  endfacet
  facet normal 0 0 1
    outer loop
      vertex -3.34565 -3.71572 2.2
      vertex -2.67652 -2.97258 2.2
      vertex -3.23607 -2.35114 2.2
    endloop
  endfacet
  facet normal 0 0 1
    outer loop
      vertex -2.67652 -2.97258 2.2
      vertex -3.34565 -3.71572 2.2
      vertex -2.5 -4.33013 2.2
    endloop
  endfacet
  facet normal 0 0 1
    outer loop
      vertex -4.04508 -2.93893 2.2
      vertex -3.23607 -2.35114 2.2
      vertex -3.65418 -1.62695 2.2
    endloop
  endfacet
  facet normal 0 0 1
    outer loop
      vertex -4.56773 -2.03368 2.2
      vertex -3.65418 -1.62695 2.2
      vertex -3.91259 -0.831646 2.2
    endloop
  endfacet
  facet normal 0 0 1
    outer loop
      vertex -3.23607 -2.35114 2.2
      vertex -4.04508 -2.93893 2.2
      vertex -3.34565 -3.71572 2.2
    endloop
  endfacet
  facet normal 0 0 1
    outer loop
      vertex -4.89074 -1.03956 2.2
      vertex -3.91259 -0.831646 2.2
      vertex -4 0 2.2
    endloop
  endfacet
  facet normal -0 0 1
    outer loop
      vertex -4.89074 1.03956 2.2
      vertex -3.91259 0.831646 2.2
      vertex -4.56773 2.03368 2.2
    endloop
  endfacet
  facet normal 0 0 1
    outer loop
      vertex -3.91259 0.831646 2.2
      vertex -4.89074 1.03956 2.2
      vertex -4 0 2.2
    endloop
  endfacet
  facet normal 0 0 1
    outer loop
      vertex -3.65418 -1.62695 2.2
      vertex -4.56773 -2.03368 2.2
      vertex -4.04508 -2.93893 2.2
    endloop
  endfacet
  facet normal 0 0 1
    outer loop
      vertex -5 0 2.2
      vertex -4 0 2.2
      vertex -4.89074 1.03956 2.2
    endloop
  endfacet
  facet normal 0 0 1
    outer loop
      vertex -3.91259 -0.831646 2.2
      vertex -4.89074 -1.03956 2.2
      vertex -4.56773 -2.03368 2.2
    endloop
  endfacet
  facet normal 0 0 1
    outer loop
      vertex -4 0 2.2
      vertex -5 0 2.2
      vertex -4.89074 -1.03956 2.2
    endloop
  endfacet
  facet normal 0.866025 -0.5 0
    outer loop
      vertex 4.04508 -2.93893 2.2
      vertex 4.56773 -2.03368 1.5
      vertex 4.56773 -2.03368 2.2
    endloop
  endfacet
  facet normal 0.866025 -0.5 0
    outer loop
      vertex 4.56773 -2.03368 1.5
      vertex 4.04508 -2.93893 2.2
      vertex 4.04508 -2.93893 1.5
    endloop
  endfacet
  facet normal -0.994522 -0.104529 0
    outer loop
      vertex -4.89074 -1.03956 1.5
      vertex -5 0 2.2
      vertex -5 0 1.5
    endloop
  endfacet
  facet normal -0.994522 -0.104529 0
    outer loop
      vertex -5 0 2.2
      vertex -4.89074 -1.03956 1.5
      vertex -4.89074 -1.03956 2.2
    endloop
  endfacet
  facet normal -0.743145 -0.669131 0
    outer loop
      vertex -3.34565 -3.71572 1.5
      vertex -4.04508 -2.93893 2.2
      vertex -4.04508 -2.93893 1.5
    endloop
  endfacet
  facet normal -0.743145 -0.669131 0
    outer loop
      vertex -4.04508 -2.93893 2.2
      vertex -3.34565 -3.71572 1.5
      vertex -3.34565 -3.71572 2.2
    endloop
  endfacet
  facet normal 0.207911 -0.978148 0
    outer loop
      vertex 0.522642 -4.97261 1.5
      vertex 1.54508 -4.75528 2.2
      vertex 0.522642 -4.97261 2.2
    endloop
  endfacet
  facet normal 0.207911 -0.978148 0
    outer loop
      vertex 1.54508 -4.75528 2.2
      vertex 0.522642 -4.97261 1.5
      vertex 1.54508 -4.75528 1.5
    endloop
  endfacet
  facet normal 0.406737 -0.913545 0
    outer loop
      vertex 1.54508 -4.75528 1.5
      vertex 2.5 -4.33013 2.2
      vertex 1.54508 -4.75528 2.2
    endloop
  endfacet
  facet normal 0.406737 -0.913545 0
    outer loop
      vertex 2.5 -4.33013 2.2
      vertex 1.54508 -4.75528 1.5
      vertex 2.5 -4.33013 1.5
    endloop
  endfacet
  facet normal 0 -1 0
    outer loop
      vertex -0.522642 -4.97261 1.5
      vertex 0.522642 -4.97261 2.2
      vertex -0.522642 -4.97261 2.2
    endloop
  endfacet
  facet normal 0 -1 -0
    outer loop
      vertex 0.522642 -4.97261 2.2
      vertex -0.522642 -4.97261 1.5
      vertex 0.522642 -4.97261 1.5
    endloop
  endfacet
  facet normal -0.207911 -0.978148 0
    outer loop
      vertex -1.54508 -4.75528 1.5
      vertex -0.522642 -4.97261 2.2
      vertex -1.54508 -4.75528 2.2
    endloop
  endfacet
  facet normal -0.207911 -0.978148 -0
    outer loop
      vertex -0.522642 -4.97261 2.2
      vertex -1.54508 -4.75528 1.5
      vertex -0.522642 -4.97261 1.5
    endloop
  endfacet
  facet normal -0.951057 -0.309017 0
    outer loop
      vertex -4.56773 -2.03368 1.5
      vertex -4.89074 -1.03956 2.2
      vertex -4.89074 -1.03956 1.5
    endloop
  endfacet
  facet normal -0.951057 -0.309017 0
    outer loop
      vertex -4.89074 -1.03956 2.2
      vertex -4.56773 -2.03368 1.5
      vertex -4.56773 -2.03368 2.2
    endloop
  endfacet
  facet normal 0.743145 -0.669131 0
    outer loop
      vertex 3.34565 -3.71572 2.2
      vertex 4.04508 -2.93893 1.5
      vertex 4.04508 -2.93893 2.2
    endloop
  endfacet
  facet normal 0.743145 -0.669131 0
    outer loop
      vertex 4.04508 -2.93893 1.5
      vertex 3.34565 -3.71572 2.2
      vertex 3.34565 -3.71572 1.5
    endloop
  endfacet
  facet normal -0.406737 -0.913545 0
    outer loop
      vertex -2.5 -4.33013 1.5
      vertex -1.54508 -4.75528 2.2
      vertex -2.5 -4.33013 2.2
    endloop
  endfacet
  facet normal -0.406737 -0.913545 -0
    outer loop
      vertex -1.54508 -4.75528 2.2
      vertex -2.5 -4.33013 1.5
      vertex -1.54508 -4.75528 1.5
    endloop
  endfacet
  facet normal 0.994522 0.104529 0
    outer loop
      vertex 4 0 5.5
      vertex 3.91259 0.831646 2.2
      vertex 3.91259 0.831646 5.5
    endloop
  endfacet
  facet normal 0.994522 0.104529 0
    outer loop
      vertex 3.91259 0.831646 2.2
      vertex 4 0 5.5
      vertex 4 0 2.2
    endloop
  endfacet
  facet normal -0.994522 0.104529 0
    outer loop
      vertex -4 0 2.2
      vertex -3.91259 0.831646 5.5
      vertex -3.91259 0.831646 2.2
    endloop
  endfacet
  facet normal -0.994522 0.104529 0
    outer loop
      vertex -3.91259 0.831646 5.5
      vertex -4 0 2.2
      vertex -4 0 5.5
    endloop
  endfacet
  facet normal 0 1 -0
    outer loop
      vertex 0.418114 3.97809 2.2
      vertex -0.418114 3.97809 5.5
      vertex 0.418114 3.97809 5.5
    endloop
  endfacet
  facet normal 0 1 0
    outer loop
      vertex -0.418114 3.97809 5.5
      vertex 0.418114 3.97809 2.2
      vertex -0.418114 3.97809 2.2
    endloop
  endfacet
  facet normal 0 -1 0
    outer loop
      vertex -0.418114 -3.97809 2.2
      vertex 0.418114 -3.97809 5.5
      vertex -0.418114 -3.97809 5.5
    endloop
  endfacet
  facet normal 0 -1 -0
    outer loop
      vertex 0.418114 -3.97809 5.5
      vertex -0.418114 -3.97809 2.2
      vertex 0.418114 -3.97809 2.2
    endloop
  endfacet
  facet normal 0.743145 0.669131 0
    outer loop
      vertex 3.23607 2.35114 5.5
      vertex 2.67652 2.97258 2.2
      vertex 2.67652 2.97258 5.5
    endloop
  endfacet
  facet normal 0.743145 0.669131 0
    outer loop
      vertex 2.67652 2.97258 2.2
      vertex 3.23607 2.35114 5.5
      vertex 3.23607 2.35114 2.2
    endloop
  endfacet
  facet normal -0.743145 0.669131 0
    outer loop
      vertex -3.23607 2.35114 2.2
      vertex -2.67652 2.97258 5.5
      vertex -2.67652 2.97258 2.2
    endloop
  endfacet
  facet normal -0.743145 0.669131 0
    outer loop
      vertex -2.67652 2.97258 5.5
      vertex -3.23607 2.35114 2.2
      vertex -3.23607 2.35114 5.5
    endloop
  endfacet
  facet normal -0.866026 0.5 0
    outer loop
      vertex -3.65418 1.62695 2.2
      vertex -3.23607 2.35114 5.5
      vertex -3.23607 2.35114 2.2
    endloop
  endfacet
  facet normal -0.866026 0.5 0
    outer loop
      vertex -3.23607 2.35114 5.5
      vertex -3.65418 1.62695 2.2
      vertex -3.65418 1.62695 5.5
    endloop
  endfacet
  facet normal -0.406738 0.913545 0
    outer loop
      vertex -1.23607 3.80423 2.2
      vertex -2 3.4641 5.5
      vertex -1.23607 3.80423 5.5
    endloop
  endfacet
  facet normal -0.406738 0.913545 0
    outer loop
      vertex -2 3.4641 5.5
      vertex -1.23607 3.80423 2.2
      vertex -2 3.4641 2.2
    endloop
  endfacet
  facet normal 0.866026 0.5 0
    outer loop
      vertex 3.65418 1.62695 5.5
      vertex 3.23607 2.35114 2.2
      vertex 3.23607 2.35114 5.5
    endloop
  endfacet
  facet normal 0.866026 0.5 0
    outer loop
      vertex 3.23607 2.35114 2.2
      vertex 3.65418 1.62695 5.5
      vertex 3.65418 1.62695 2.2
    endloop
  endfacet
  facet normal 0.951057 0.309017 0
    outer loop
      vertex 3.91259 0.831646 5.5
      vertex 3.65418 1.62695 2.2
      vertex 3.65418 1.62695 5.5
    endloop
  endfacet
  facet normal 0.951057 0.309017 0
    outer loop
      vertex 3.65418 1.62695 2.2
      vertex 3.91259 0.831646 5.5
      vertex 3.91259 0.831646 2.2
    endloop
  endfacet
  facet normal 0.406737 0.913545 -0
    outer loop
      vertex 2 3.4641 2.2
      vertex 1.23607 3.80423 5.5
      vertex 2 3.4641 5.5
    endloop
  endfacet
  facet normal 0.406737 0.913545 0
    outer loop
      vertex 1.23607 3.80423 5.5
      vertex 2 3.4641 2.2
      vertex 1.23607 3.80423 2.2
    endloop
  endfacet
  facet normal 0.207912 0.978148 -0
    outer loop
      vertex 1.23607 3.80423 2.2
      vertex 0.418114 3.97809 5.5
      vertex 1.23607 3.80423 5.5
    endloop
  endfacet
  facet normal 0.207912 0.978148 0
    outer loop
      vertex 0.418114 3.97809 5.5
      vertex 1.23607 3.80423 2.2
      vertex 0.418114 3.97809 2.2
    endloop
  endfacet
  facet normal 0.587785 0.809017 -0
    outer loop
      vertex 2.67652 2.97258 2.2
      vertex 2 3.4641 5.5
      vertex 2.67652 2.97258 5.5
    endloop
  endfacet
  facet normal 0.587785 0.809017 0
    outer loop
      vertex 2 3.4641 5.5
      vertex 2.67652 2.97258 2.2
      vertex 2 3.4641 2.2
    endloop
  endfacet
  facet normal -0.951057 0.309017 0
    outer loop
      vertex -3.91259 0.831646 2.2
      vertex -3.65418 1.62695 5.5
      vertex -3.65418 1.62695 2.2
    endloop
  endfacet
  facet normal -0.951057 0.309017 0
    outer loop
      vertex -3.65418 1.62695 5.5
      vertex -3.91259 0.831646 2.2
      vertex -3.91259 0.831646 5.5
    endloop
  endfacet
  facet normal 0 0 1
    outer loop
      vertex 3.91259 0.831646 5.5
      vertex 3.91259 -0.831646 5.5
      vertex 4 0 5.5
    endloop
  endfacet
  facet normal 0 0 1
    outer loop
      vertex 3.65418 1.62695 5.5
      vertex 3.91259 -0.831646 5.5
      vertex 3.91259 0.831646 5.5
    endloop
  endfacet
  facet normal 0 0 1
    outer loop
      vertex 3.65418 1.62695 5.5
      vertex 3.65418 -1.62695 5.5
      vertex 3.91259 -0.831646 5.5
    endloop
  endfacet
  facet normal 0 0 1
    outer loop
      vertex 3.23607 2.35114 5.5
      vertex 3.65418 -1.62695 5.5
      vertex 3.65418 1.62695 5.5
    endloop
  endfacet
  facet normal 0 0 1
    outer loop
      vertex 3.23607 2.35114 5.5
      vertex 3.23607 -2.35114 5.5
      vertex 3.65418 -1.62695 5.5
    endloop
  endfacet
  facet normal 0 0 1
    outer loop
      vertex 2.67652 2.97258 5.5
      vertex 3.23607 -2.35114 5.5
      vertex 3.23607 2.35114 5.5
    endloop
  endfacet
  facet normal 0 0 1
    outer loop
      vertex 2.67652 2.97258 5.5
      vertex 2.67652 -2.97258 5.5
      vertex 3.23607 -2.35114 5.5
    endloop
  endfacet
  facet normal 0 0 1
    outer loop
      vertex 2 3.4641 5.5
      vertex 2.67652 -2.97258 5.5
      vertex 2.67652 2.97258 5.5
    endloop
  endfacet
  facet normal 0 0 1
    outer loop
      vertex 2 3.4641 5.5
      vertex 2 -3.4641 5.5
      vertex 2.67652 -2.97258 5.5
    endloop
  endfacet
  facet normal 0 0 1
    outer loop
      vertex 1.23607 3.80423 5.5
      vertex 2 -3.4641 5.5
      vertex 2 3.4641 5.5
    endloop
  endfacet
  facet normal 0 0 1
    outer loop
      vertex 1.23607 3.80423 5.5
      vertex 1.23607 -3.80423 5.5
      vertex 2 -3.4641 5.5
    endloop
  endfacet
  facet normal 0 0 1
    outer loop
      vertex 0.418114 3.97809 5.5
      vertex 1.23607 -3.80423 5.5
      vertex 1.23607 3.80423 5.5
    endloop
  endfacet
  facet normal 0 0 1
    outer loop
      vertex 0.418114 3.97809 5.5
      vertex 0.418114 -3.97809 5.5
      vertex 1.23607 -3.80423 5.5
    endloop
  endfacet
  facet normal -0 0 1
    outer loop
      vertex -0.418114 3.97809 5.5
      vertex 0.418114 -3.97809 5.5
      vertex 0.418114 3.97809 5.5
    endloop
  endfacet
  facet normal 0 0 1
    outer loop
      vertex -0.418114 3.97809 5.5
      vertex -0.418114 -3.97809 5.5
      vertex 0.418114 -3.97809 5.5
    endloop
  endfacet
  facet normal -0 0 1
    outer loop
      vertex -1.23607 3.80423 5.5
      vertex -0.418114 -3.97809 5.5
      vertex -0.418114 3.97809 5.5
    endloop
  endfacet
  facet normal 0 0 1
    outer loop
      vertex -1.23607 3.80423 5.5
      vertex -1.23607 -3.80423 5.5
      vertex -0.418114 -3.97809 5.5
    endloop
  endfacet
  facet normal -0 0 1
    outer loop
      vertex -2 3.4641 5.5
      vertex -1.23607 -3.80423 5.5
      vertex -1.23607 3.80423 5.5
    endloop
  endfacet
  facet normal 0 0 1
    outer loop
      vertex -2 3.4641 5.5
      vertex -2 -3.4641 5.5
      vertex -1.23607 -3.80423 5.5
    endloop
  endfacet
  facet normal -0 0 1
    outer loop
      vertex -2.67652 2.97258 5.5
      vertex -2 -3.4641 5.5
      vertex -2 3.4641 5.5
    endloop
  endfacet
  facet normal 0 0 1
    outer loop
      vertex -2.67652 2.97258 5.5
      vertex -2.67652 -2.97258 5.5
      vertex -2 -3.4641 5.5
    endloop
  endfacet
  facet normal -0 0 1
    outer loop
      vertex -3.23607 2.35114 5.5
      vertex -2.67652 -2.97258 5.5
      vertex -2.67652 2.97258 5.5
    endloop
  endfacet
  facet normal 0 0 1
    outer loop
      vertex -3.23607 2.35114 5.5
      vertex -3.23607 -2.35114 5.5
      vertex -2.67652 -2.97258 5.5
    endloop
  endfacet
  facet normal -0 0 1
    outer loop
      vertex -3.65418 1.62695 5.5
      vertex -3.23607 -2.35114 5.5
      vertex -3.23607 2.35114 5.5
    endloop
  endfacet
  facet normal 0 0 1
    outer loop
      vertex -3.65418 1.62695 5.5
      vertex -3.65418 -1.62695 5.5
      vertex -3.23607 -2.35114 5.5
    endloop
  endfacet
  facet normal -0 0 1
    outer loop
      vertex -3.91259 0.831646 5.5
      vertex -3.65418 -1.62695 5.5
      vertex -3.65418 1.62695 5.5
    endloop
  endfacet
  facet normal 0 0 1
    outer loop
      vertex -3.91259 0.831646 5.5
      vertex -3.91259 -0.831646 5.5
      vertex -3.65418 -1.62695 5.5
    endloop
  endfacet
  facet normal 0 -0 1
    outer loop
      vertex -3.91259 -0.831646 5.5
      vertex -3.91259 0.831646 5.5
      vertex -4 0 5.5
    endloop
  endfacet
  facet normal -0.587784 0.809018 0
    outer loop
      vertex -2 3.4641 2.2
      vertex -2.67652 2.97258 5.5
      vertex -2 3.4641 5.5
    endloop
  endfacet
  facet normal -0.587784 0.809018 0
    outer loop
      vertex -2.67652 2.97258 5.5
      vertex -2 3.4641 2.2
      vertex -2.67652 2.97258 2.2
    endloop
  endfacet
  facet normal -0.207912 0.978148 0
    outer loop
      vertex -0.418114 3.97809 2.2
      vertex -1.23607 3.80423 5.5
      vertex -0.418114 3.97809 5.5
    endloop
  endfacet
  facet normal -0.207912 0.978148 0
    outer loop
      vertex -1.23607 3.80423 5.5
      vertex -0.418114 3.97809 2.2
      vertex -1.23607 3.80423 2.2
    endloop
  endfacet
  facet normal 0.994522 -0.104529 0
    outer loop
      vertex 3.91259 -0.831646 5.5
      vertex 4 0 2.2
      vertex 4 0 5.5
    endloop
  endfacet
  facet normal 0.994522 -0.104529 0
    outer loop
      vertex 4 0 2.2
      vertex 3.91259 -0.831646 5.5
      vertex 3.91259 -0.831646 2.2
    endloop
  endfacet
  facet normal 0.207912 -0.978148 0
    outer loop
      vertex 0.418114 -3.97809 2.2
      vertex 1.23607 -3.80423 5.5
      vertex 0.418114 -3.97809 5.5
    endloop
  endfacet
  facet normal 0.207912 -0.978148 0
    outer loop
      vertex 1.23607 -3.80423 5.5
      vertex 0.418114 -3.97809 2.2
      vertex 1.23607 -3.80423 2.2
    endloop
  endfacet
  facet normal 0.866026 -0.5 0
    outer loop
      vertex 3.23607 -2.35114 5.5
      vertex 3.65418 -1.62695 2.2
      vertex 3.65418 -1.62695 5.5
    endloop
  endfacet
  facet normal 0.866026 -0.5 0
    outer loop
      vertex 3.65418 -1.62695 2.2
      vertex 3.23607 -2.35114 5.5
      vertex 3.23607 -2.35114 2.2
    endloop
  endfacet
  facet normal -0.866026 -0.5 0
    outer loop
      vertex -3.23607 -2.35114 2.2
      vertex -3.65418 -1.62695 5.5
      vertex -3.65418 -1.62695 2.2
    endloop
  endfacet
  facet normal -0.866026 -0.5 0
    outer loop
      vertex -3.65418 -1.62695 5.5
      vertex -3.23607 -2.35114 2.2
      vertex -3.23607 -2.35114 5.5
    endloop
  endfacet
  facet normal 0.587785 -0.809017 0
    outer loop
      vertex 2 -3.4641 2.2
      vertex 2.67652 -2.97258 5.5
      vertex 2 -3.4641 5.5
    endloop
  endfacet
  facet normal 0.587785 -0.809017 0
    outer loop
      vertex 2.67652 -2.97258 5.5
      vertex 2 -3.4641 2.2
      vertex 2.67652 -2.97258 2.2
    endloop
  endfacet
  facet normal 0.406737 -0.913545 0
    outer loop
      vertex 1.23607 -3.80423 2.2
      vertex 2 -3.4641 5.5
      vertex 1.23607 -3.80423 5.5
    endloop
  endfacet
  facet normal 0.406737 -0.913545 0
    outer loop
      vertex 2 -3.4641 5.5
      vertex 1.23607 -3.80423 2.2
      vertex 2 -3.4641 2.2
    endloop
  endfacet
  facet normal 0.951057 -0.309017 0
    outer loop
      vertex 3.65418 -1.62695 5.5
      vertex 3.91259 -0.831646 2.2
      vertex 3.91259 -0.831646 5.5
    endloop
  endfacet
  facet normal 0.951057 -0.309017 0
    outer loop
      vertex 3.91259 -0.831646 2.2
      vertex 3.65418 -1.62695 5.5
      vertex 3.65418 -1.62695 2.2
    endloop
  endfacet
  facet normal -0.207912 -0.978148 0
    outer loop
      vertex -1.23607 -3.80423 2.2
      vertex -0.418114 -3.97809 5.5
      vertex -1.23607 -3.80423 5.5
    endloop
  endfacet
  facet normal -0.207912 -0.978148 -0
    outer loop
      vertex -0.418114 -3.97809 5.5
      vertex -1.23607 -3.80423 2.2
      vertex -0.418114 -3.97809 2.2
    endloop
  endfacet
  facet normal -0.743145 -0.669131 0
    outer loop
      vertex -2.67652 -2.97258 2.2
      vertex -3.23607 -2.35114 5.5
      vertex -3.23607 -2.35114 2.2
    endloop
  endfacet
  facet normal -0.743145 -0.669131 0
    outer loop
      vertex -3.23607 -2.35114 5.5
      vertex -2.67652 -2.97258 2.2
      vertex -2.67652 -2.97258 5.5
    endloop
  endfacet
  facet normal -0.951057 -0.309017 0
    outer loop
      vertex -3.65418 -1.62695 2.2
      vertex -3.91259 -0.831646 5.5
      vertex -3.91259 -0.831646 2.2
    endloop
  endfacet
  facet normal -0.951057 -0.309017 0
    outer loop
      vertex -3.91259 -0.831646 5.5
      vertex -3.65418 -1.62695 2.2
      vertex -3.65418 -1.62695 5.5
    endloop
  endfacet
  facet normal -0.994522 -0.104529 0
    outer loop
      vertex -3.91259 -0.831646 2.2
      vertex -4 0 5.5
      vertex -4 0 2.2
    endloop
  endfacet
  facet normal -0.994522 -0.104529 0
    outer loop
      vertex -4 0 5.5
      vertex -3.91259 -0.831646 2.2
      vertex -3.91259 -0.831646 5.5
    endloop
  endfacet
  facet normal 0.743145 -0.669131 0
    outer loop
      vertex 2.67652 -2.97258 5.5
      vertex 3.23607 -2.35114 2.2
      vertex 3.23607 -2.35114 5.5
    endloop
  endfacet
  facet normal 0.743145 -0.669131 0
    outer loop
      vertex 3.23607 -2.35114 2.2
      vertex 2.67652 -2.97258 5.5
      vertex 2.67652 -2.97258 2.2
    endloop
  endfacet
  facet normal -0.406737 -0.913545 0
    outer loop
      vertex -2 -3.4641 2.2
      vertex -1.23607 -3.80423 5.5
      vertex -2 -3.4641 5.5
    endloop
  endfacet
  facet normal -0.406737 -0.913545 -0
    outer loop
      vertex -1.23607 -3.80423 5.5
      vertex -2 -3.4641 2.2
      vertex -1.23607 -3.80423 2.2
    endloop
  endfacet
  facet normal -0.587785 -0.809017 0
    outer loop
      vertex -2.67652 -2.97258 2.2
      vertex -2 -3.4641 5.5
      vertex -2.67652 -2.97258 5.5
    endloop
  endfacet
  facet normal -0.587785 -0.809017 -0
    outer loop
      vertex -2 -3.4641 5.5
      vertex -2.67652 -2.97258 2.2
      vertex -2 -3.4641 2.2
    endloop
  endfacet
endsolid OpenSCAD_Model
