solid OpenSCAD_Model
  facet normal -1 0 0
    outer loop
      vertex -41.4425 -0.98679 0
      vertex -41.4425 0.98679 3
      vertex -41.4425 0.98679 0
    endloop
  endfacet
  facet normal -1 -0 0
    outer loop
      vertex -41.4425 0.98679 3
      vertex -41.4425 -0.98679 0
      vertex -41.4425 -0.98679 3
    endloop
  endfacet
  facet normal 0 0 1
    outer loop
      vertex 33 5 3
      vertex 41.5 0 3
      vertex 41.2709 1.96023 3
    endloop
  endfacet
  facet normal 0 0 1
    outer loop
      vertex 33 5 3
      vertex 41.2709 1.96023 3
      vertex 40.5959 3.81479 3
    endloop
  endfacet
  facet normal 0 0 1
    outer loop
      vertex 33 -5 3
      vertex 41.5 0 3
      vertex 33 5 3
    endloop
  endfacet
  facet normal -0 0 1
    outer loop
      vertex 33 5 3
      vertex 40.5959 3.81479 3
      vertex 39.5114 5.46369 3
    endloop
  endfacet
  facet normal 0 0 1
    outer loop
      vertex 41.5 0 3
      vertex 33 -5 3
      vertex 41.2709 -1.96023 3
    endloop
  endfacet
  facet normal 0 0 1
    outer loop
      vertex 33 5 3
      vertex 39.5114 5.46369 3
      vertex 38.0758 6.81805 3
    endloop
  endfacet
  facet normal 0 0 1
    outer loop
      vertex 41.2709 -1.96023 3
      vertex 33 -5 3
      vertex 40.5959 -3.81479 3
    endloop
  endfacet
  facet normal 0 0 1
    outer loop
      vertex 33 5 3
      vertex 38.0758 6.81805 3
      vertex 36.3667 7.80484 3
    endloop
  endfacet
  facet normal 0 0 1
    outer loop
      vertex 40.5959 -3.81479 3
      vertex 33 -5 3
      vertex 39.5114 -5.46369 3
    endloop
  endfacet
  facet normal 0 0 1
    outer loop
      vertex 33 5 3
      vertex 36.3667 7.80484 3
      vertex 34.476 8.37087 3
    endloop
  endfacet
  facet normal 0 0 1
    outer loop
      vertex 39.5114 -5.46369 3
      vertex 33 -5 3
      vertex 38.0758 -6.81805 3
    endloop
  endfacet
  facet normal 0 0 1
    outer loop
      vertex 38.0758 -6.81805 3
      vertex 33 -5 3
      vertex 36.3667 -7.80484 3
    endloop
  endfacet
  facet normal 0 0 1
    outer loop
      vertex 32.5058 8.48562 3
      vertex 33 5 3
      vertex 34.476 8.37087 3
    endloop
  endfacet
  facet normal 0 0 1
    outer loop
      vertex 32.5058 8.48562 3
      vertex -33 5 3
      vertex 33 5 3
    endloop
  endfacet
  facet normal -0 0 1
    outer loop
      vertex -35.4378 8.14291 3
      vertex -33 5 3
      vertex -33.4942 8.48562 3
    endloop
  endfacet
  facet normal -0 0 1
    outer loop
      vertex -33.4942 8.48562 3
      vertex -33 5 3
      vertex 32.5058 8.48562 3
    endloop
  endfacet
  facet normal 0 0 1
    outer loop
      vertex 36.3667 -7.80484 3
      vertex 33 -5 3
      vertex 34.476 -8.37087 3
    endloop
  endfacet
  facet normal 0 0 1
    outer loop
      vertex 33 -5 3
      vertex 32.5058 -8.48562 3
      vertex 34.476 -8.37087 3
    endloop
  endfacet
  facet normal -0 0 1
    outer loop
      vertex -33 -5 3
      vertex 32.5058 -8.48562 3
      vertex 33 -5 3
    endloop
  endfacet
  facet normal 0 0 1
    outer loop
      vertex -33 -5 3
      vertex -33.4942 -8.48562 3
      vertex 32.5058 -8.48562 3
    endloop
  endfacet
  facet normal -0 0 1
    outer loop
      vertex -37.25 7.36122 3
      vertex -33 5 3
      vertex -35.4378 8.14291 3
    endloop
  endfacet
  facet normal -0 0 1
    outer loop
      vertex -38.8331 6.18268 3
      vertex -33 5 3
      vertex -37.25 7.36122 3
    endloop
  endfacet
  facet normal 0 0 1
    outer loop
      vertex -33 -5 3
      vertex -35.4378 -8.14291 3
      vertex -33.4942 -8.48562 3
    endloop
  endfacet
  facet normal 0 0 1
    outer loop
      vertex -40.1016 4.67083 3
      vertex -33 5 3
      vertex -38.8331 6.18268 3
    endloop
  endfacet
  facet normal 0 0 1
    outer loop
      vertex -33 -5 3
      vertex -37.25 -7.36122 3
      vertex -35.4378 -8.14291 3
    endloop
  endfacet
  facet normal 0 0 1
    outer loop
      vertex -40.9874 2.90717 3
      vertex -33 5 3
      vertex -40.1016 4.67083 3
    endloop
  endfacet
  facet normal 0 0 1
    outer loop
      vertex -33 -5 3
      vertex -38.8331 -6.18268 3
      vertex -37.25 -7.36122 3
    endloop
  endfacet
  facet normal 0 0 1
    outer loop
      vertex -41.4425 0.98679 3
      vertex -33 5 3
      vertex -40.9874 2.90717 3
    endloop
  endfacet
  facet normal 0 0 1
    outer loop
      vertex -33 -5 3
      vertex -40.1016 -4.67083 3
      vertex -38.8331 -6.18268 3
    endloop
  endfacet
  facet normal 0 0 1
    outer loop
      vertex -33 5 3
      vertex -41.4425 0.98679 3
      vertex -33 -5 3
    endloop
  endfacet
  facet normal 0 0 1
    outer loop
      vertex -33 -5 3
      vertex -40.9874 -2.90717 3
      vertex -40.1016 -4.67083 3
    endloop
  endfacet
  facet normal -0 0 1
    outer loop
      vertex -41.4425 -0.98679 3
      vertex -33 -5 3
      vertex -41.4425 0.98679 3
    endloop
  endfacet
  facet normal 0 0 1
    outer loop
      vertex -33 -5 3
      vertex -41.4425 -0.98679 3
      vertex -40.9874 -2.90717 3
    endloop
  endfacet
  facet normal -0.973045 0.230616 0
    outer loop
      vertex -41.4425 0.98679 0
      vertex -40.9874 2.90717 3
      vertex -40.9874 2.90717 0
    endloop
  endfacet
  facet normal -0.973045 0.230616 0
    outer loop
      vertex -40.9874 2.90717 3
      vertex -41.4425 0.98679 0
      vertex -41.4425 0.98679 3
    endloop
  endfacet
  facet normal -0.893632 0.4488 0
    outer loop
      vertex -40.9874 2.90717 0
      vertex -40.1016 4.67083 3
      vertex -40.1016 4.67083 0
    endloop
  endfacet
  facet normal -0.893632 0.4488 0
    outer loop
      vertex -40.1016 4.67083 3
      vertex -40.9874 2.90717 0
      vertex -40.9874 2.90717 3
    endloop
  endfacet
  facet normal 0 1 -0
    outer loop
      vertex 32.5058 8.48562 0
      vertex -33.4942 8.48562 3
      vertex 32.5058 8.48562 3
    endloop
  endfacet
  facet normal 0 1 0
    outer loop
      vertex -33.4942 8.48562 3
      vertex 32.5058 8.48562 0
      vertex -33.4942 8.48562 0
    endloop
  endfacet
  facet normal -0.173648 -0.984808 0
    outer loop
      vertex -35.4378 -8.14291 0
      vertex -33.4942 -8.48562 3
      vertex -35.4378 -8.14291 3
    endloop
  endfacet
  facet normal -0.173648 -0.984808 -0
    outer loop
      vertex -33.4942 -8.48562 3
      vertex -35.4378 -8.14291 0
      vertex -33.4942 -8.48562 0
    endloop
  endfacet
  facet normal 0.939693 0.34202 0
    outer loop
      vertex 41.2709 1.96023 3
      vertex 40.5959 3.81479 0
      vertex 40.5959 3.81479 3
    endloop
  endfacet
  facet normal 0.939693 0.34202 0
    outer loop
      vertex 40.5959 3.81479 0
      vertex 41.2709 1.96023 3
      vertex 41.2709 1.96023 0
    endloop
  endfacet
  facet normal 0.835487 -0.54951 0
    outer loop
      vertex 39.5114 -5.46369 3
      vertex 40.5959 -3.81479 0
      vertex 40.5959 -3.81479 3
    endloop
  endfacet
  facet normal 0.835487 -0.54951 0
    outer loop
      vertex 40.5959 -3.81479 0
      vertex 39.5114 -5.46369 3
      vertex 39.5114 -5.46369 0
    endloop
  endfacet
  facet normal 0 -1 0
    outer loop
      vertex -33.4942 -8.48562 0
      vertex 32.5058 -8.48562 3
      vertex -33.4942 -8.48562 3
    endloop
  endfacet
  facet normal 0 -1 -0
    outer loop
      vertex 32.5058 -8.48562 3
      vertex -33.4942 -8.48562 0
      vertex 32.5058 -8.48562 0
    endloop
  endfacet
  facet normal 0 0 -1
    outer loop
      vertex -33 -2 0
      vertex 33 2 0
      vertex 33 -2 0
    endloop
  endfacet
  facet normal -0 0 -1
    outer loop
      vertex 33 2 0
      vertex -33 -2 0
      vertex -33 2 0
    endloop
  endfacet
  facet normal 0 0 -1
    outer loop
      vertex 33 -2 0
      vertex 41.5 0 0
      vertex 41.2709 -1.96023 0
    endloop
  endfacet
  facet normal 0 0 -1
    outer loop
      vertex 33 -2 0
      vertex 41.2709 -1.96023 0
      vertex 40.5959 -3.81479 0
    endloop
  endfacet
  facet normal 0 0 -1
    outer loop
      vertex 33 2 0
      vertex 41.5 0 0
      vertex 33 -2 0
    endloop
  endfacet
  facet normal 0 0 -1
    outer loop
      vertex 33 -2 0
      vertex 40.5959 -3.81479 0
      vertex 39.5114 -5.46369 0
    endloop
  endfacet
  facet normal 0 0 -1
    outer loop
      vertex 41.5 0 0
      vertex 33 2 0
      vertex 41.2709 1.96023 0
    endloop
  endfacet
  facet normal 0 0 -1
    outer loop
      vertex 33 -5 0
      vertex 39.5114 -5.46369 0
      vertex 38.0758 -6.81805 0
    endloop
  endfacet
  facet normal 0 0 -1
    outer loop
      vertex 41.2709 1.96023 0
      vertex 33 2 0
      vertex 40.5959 3.81479 0
    endloop
  endfacet
  facet normal 0 0 -1
    outer loop
      vertex 33 -5 0
      vertex 38.0758 -6.81805 0
      vertex 36.3667 -7.80484 0
    endloop
  endfacet
  facet normal -0 0 -1
    outer loop
      vertex 40.5959 3.81479 0
      vertex 33 2 0
      vertex 39.5114 5.46369 0
    endloop
  endfacet
  facet normal 0 0 -1
    outer loop
      vertex 33 -5 0
      vertex 36.3667 -7.80484 0
      vertex 34.476 -8.37087 0
    endloop
  endfacet
  facet normal 0 0 -1
    outer loop
      vertex 33 5 0
      vertex 39.5114 5.46369 0
      vertex 33 2 0
    endloop
  endfacet
  facet normal 0 0 -1
    outer loop
      vertex 39.5114 -5.46369 0
      vertex 33 -5 0
      vertex 33 -2 0
    endloop
  endfacet
  facet normal 0 0 -1
    outer loop
      vertex 32.5058 -8.48562 0
      vertex 33 -5 0
      vertex 34.476 -8.37087 0
    endloop
  endfacet
  facet normal 0 0 -1
    outer loop
      vertex 32.5058 -8.48562 0
      vertex -33 -5 0
      vertex 33 -5 0
    endloop
  endfacet
  facet normal 0 0 -1
    outer loop
      vertex -38.8331 -6.18268 0
      vertex -33 -2 0
      vertex -33 -5 0
    endloop
  endfacet
  facet normal 0 0 -1
    outer loop
      vertex -41.4425 -0.98679 0
      vertex -33 -2 0
      vertex -40.9874 -2.90717 0
    endloop
  endfacet
  facet normal 0 0 -1
    outer loop
      vertex -35.4378 -8.14291 0
      vertex -33 -5 0
      vertex -33.4942 -8.48562 0
    endloop
  endfacet
  facet normal 0 0 -1
    outer loop
      vertex -33.4942 -8.48562 0
      vertex -33 -5 0
      vertex 32.5058 -8.48562 0
    endloop
  endfacet
  facet normal -0 0 -1
    outer loop
      vertex 39.5114 5.46369 0
      vertex 33 5 0
      vertex 38.0758 6.81805 0
    endloop
  endfacet
  facet normal -0 0 -1
    outer loop
      vertex 38.0758 6.81805 0
      vertex 33 5 0
      vertex 36.3667 7.80484 0
    endloop
  endfacet
  facet normal -0 0 -1
    outer loop
      vertex 36.3667 7.80484 0
      vertex 33 5 0
      vertex 34.476 8.37087 0
    endloop
  endfacet
  facet normal 0 0 -1
    outer loop
      vertex 33 5 0
      vertex 32.5058 8.48562 0
      vertex 34.476 8.37087 0
    endloop
  endfacet
  facet normal 0 0 -1
    outer loop
      vertex -33 5 0
      vertex 32.5058 8.48562 0
      vertex 33 5 0
    endloop
  endfacet
  facet normal 0 0 -1
    outer loop
      vertex -33 5 0
      vertex -33.4942 8.48562 0
      vertex 32.5058 8.48562 0
    endloop
  endfacet
  facet normal 0 0 -1
    outer loop
      vertex -37.25 -7.36122 0
      vertex -33 -5 0
      vertex -35.4378 -8.14291 0
    endloop
  endfacet
  facet normal 0 0 -1
    outer loop
      vertex -38.8331 -6.18268 0
      vertex -33 -5 0
      vertex -37.25 -7.36122 0
    endloop
  endfacet
  facet normal 0 0 -1
    outer loop
      vertex -33 5 0
      vertex -35.4378 8.14291 0
      vertex -33.4942 8.48562 0
    endloop
  endfacet
  facet normal 0 0 -1
    outer loop
      vertex -33 -2 0
      vertex -38.8331 -6.18268 0
      vertex -40.1016 -4.67083 0
    endloop
  endfacet
  facet normal 0 0 -1
    outer loop
      vertex -33 5 0
      vertex -37.25 7.36122 0
      vertex -35.4378 8.14291 0
    endloop
  endfacet
  facet normal 0 0 -1
    outer loop
      vertex -33 -2 0
      vertex -40.1016 -4.67083 0
      vertex -40.9874 -2.90717 0
    endloop
  endfacet
  facet normal 0 0 -1
    outer loop
      vertex -33 5 0
      vertex -38.8331 6.18268 0
      vertex -37.25 7.36122 0
    endloop
  endfacet
  facet normal 0 0 -1
    outer loop
      vertex -33 -2 0
      vertex -41.4425 -0.98679 0
      vertex -33 2 0
    endloop
  endfacet
  facet normal 0 0 -1
    outer loop
      vertex -33 2 0
      vertex -38.8331 6.18268 0
      vertex -33 5 0
    endloop
  endfacet
  facet normal 0 0 -1
    outer loop
      vertex -41.4425 0.98679 0
      vertex -33 2 0
      vertex -41.4425 -0.98679 0
    endloop
  endfacet
  facet normal 0 -0 -1
    outer loop
      vertex -38.8331 6.18268 0
      vertex -33 2 0
      vertex -40.1016 4.67083 0
    endloop
  endfacet
  facet normal 0 -0 -1
    outer loop
      vertex -40.9874 2.90717 0
      vertex -33 2 0
      vertex -41.4425 0.98679 0
    endloop
  endfacet
  facet normal 0 -0 -1
    outer loop
      vertex -40.1016 4.67083 0
      vertex -33 2 0
      vertex -40.9874 2.90717 0
    endloop
  endfacet
  facet normal 0.0581445 0.998308 -0
    outer loop
      vertex 34.476 8.37087 0
      vertex 32.5058 8.48562 3
      vertex 34.476 8.37087 3
    endloop
  endfacet
  facet normal 0.0581445 0.998308 0
    outer loop
      vertex 32.5058 8.48562 3
      vertex 34.476 8.37087 0
      vertex 32.5058 8.48562 0
    endloop
  endfacet
  facet normal 0.835487 0.54951 0
    outer loop
      vertex 40.5959 3.81479 3
      vertex 39.5114 5.46369 0
      vertex 39.5114 5.46369 3
    endloop
  endfacet
  facet normal 0.835487 0.54951 0
    outer loop
      vertex 39.5114 5.46369 0
      vertex 40.5959 3.81479 3
      vertex 40.5959 3.81479 0
    endloop
  endfacet
  facet normal 0.993238 -0.116093 0
    outer loop
      vertex 41.2709 -1.96023 3
      vertex 41.5 0 0
      vertex 41.5 0 3
    endloop
  endfacet
  facet normal 0.993238 -0.116093 0
    outer loop
      vertex 41.5 0 0
      vertex 41.2709 -1.96023 3
      vertex 41.2709 -1.96023 0
    endloop
  endfacet
  facet normal -0.597159 0.802123 0
    outer loop
      vertex -37.25 7.36122 0
      vertex -38.8331 6.18268 3
      vertex -37.25 7.36122 3
    endloop
  endfacet
  facet normal -0.597159 0.802123 0
    outer loop
      vertex -38.8331 6.18268 3
      vertex -37.25 7.36122 0
      vertex -38.8331 6.18268 0
    endloop
  endfacet
  facet normal -0.39608 0.918216 0
    outer loop
      vertex -35.4378 8.14291 0
      vertex -37.25 7.36122 3
      vertex -35.4378 8.14291 3
    endloop
  endfacet
  facet normal -0.39608 0.918216 0
    outer loop
      vertex -37.25 7.36122 3
      vertex -35.4378 8.14291 0
      vertex -37.25 7.36122 0
    endloop
  endfacet
  facet normal -0.173648 0.984808 0
    outer loop
      vertex -33.4942 8.48562 0
      vertex -35.4378 8.14291 3
      vertex -33.4942 8.48562 3
    endloop
  endfacet
  facet normal -0.173648 0.984808 0
    outer loop
      vertex -35.4378 8.14291 3
      vertex -33.4942 8.48562 0
      vertex -35.4378 8.14291 0
    endloop
  endfacet
  facet normal 0.686242 -0.727373 0
    outer loop
      vertex 38.0758 -6.81805 0
      vertex 39.5114 -5.46369 3
      vertex 38.0758 -6.81805 3
    endloop
  endfacet
  facet normal 0.686242 -0.727373 0
    outer loop
      vertex 39.5114 -5.46369 3
      vertex 38.0758 -6.81805 0
      vertex 39.5114 -5.46369 0
    endloop
  endfacet
  facet normal 0.5 -0.866026 0
    outer loop
      vertex 36.3667 -7.80484 0
      vertex 38.0758 -6.81805 3
      vertex 36.3667 -7.80484 3
    endloop
  endfacet
  facet normal 0.5 -0.866026 0
    outer loop
      vertex 38.0758 -6.81805 3
      vertex 36.3667 -7.80484 0
      vertex 38.0758 -6.81805 0
    endloop
  endfacet
  facet normal 0.0581445 -0.998308 0
    outer loop
      vertex 32.5058 -8.48562 0
      vertex 34.476 -8.37087 3
      vertex 32.5058 -8.48562 3
    endloop
  endfacet
  facet normal 0.0581445 -0.998308 0
    outer loop
      vertex 34.476 -8.37087 3
      vertex 32.5058 -8.48562 0
      vertex 34.476 -8.37087 0
    endloop
  endfacet
  facet normal -0.597159 -0.802123 0
    outer loop
      vertex -38.8331 -6.18268 0
      vertex -37.25 -7.36122 3
      vertex -38.8331 -6.18268 3
    endloop
  endfacet
  facet normal -0.597159 -0.802123 -0
    outer loop
      vertex -37.25 -7.36122 3
      vertex -38.8331 -6.18268 0
      vertex -37.25 -7.36122 0
    endloop
  endfacet
  facet normal -0.973045 -0.230616 0
    outer loop
      vertex -40.9874 -2.90717 0
      vertex -41.4425 -0.98679 3
      vertex -41.4425 -0.98679 0
    endloop
  endfacet
  facet normal -0.973045 -0.230616 0
    outer loop
      vertex -41.4425 -0.98679 3
      vertex -40.9874 -2.90717 0
      vertex -40.9874 -2.90717 3
    endloop
  endfacet
  facet normal 0.993238 0.116093 0
    outer loop
      vertex 41.5 0 3
      vertex 41.2709 1.96023 0
      vertex 41.2709 1.96023 3
    endloop
  endfacet
  facet normal 0.993238 0.116093 0
    outer loop
      vertex 41.2709 1.96023 0
      vertex 41.5 0 3
      vertex 41.5 0 0
    endloop
  endfacet
  facet normal 0.5 0.866026 -0
    outer loop
      vertex 38.0758 6.81805 0
      vertex 36.3667 7.80484 3
      vertex 38.0758 6.81805 3
    endloop
  endfacet
  facet normal 0.5 0.866026 0
    outer loop
      vertex 36.3667 7.80484 3
      vertex 38.0758 6.81805 0
      vertex 36.3667 7.80484 0
    endloop
  endfacet
  facet normal 0.686242 0.727373 -0
    outer loop
      vertex 39.5114 5.46369 0
      vertex 38.0758 6.81805 3
      vertex 39.5114 5.46369 3
    endloop
  endfacet
  facet normal 0.686242 0.727373 0
    outer loop
      vertex 38.0758 6.81805 3
      vertex 39.5114 5.46369 0
      vertex 38.0758 6.81805 0
    endloop
  endfacet
  facet normal 0.286804 0.957989 -0
    outer loop
      vertex 36.3667 7.80484 0
      vertex 34.476 8.37087 3
      vertex 36.3667 7.80484 3
    endloop
  endfacet
  facet normal 0.286804 0.957989 0
    outer loop
      vertex 34.476 8.37087 3
      vertex 36.3667 7.80484 0
      vertex 34.476 8.37087 0
    endloop
  endfacet
  facet normal 0.939693 -0.34202 0
    outer loop
      vertex 40.5959 -3.81479 3
      vertex 41.2709 -1.96023 0
      vertex 41.2709 -1.96023 3
    endloop
  endfacet
  facet normal 0.939693 -0.34202 0
    outer loop
      vertex 41.2709 -1.96023 0
      vertex 40.5959 -3.81479 3
      vertex 40.5959 -3.81479 0
    endloop
  endfacet
  facet normal -0.766044 0.642788 0
    outer loop
      vertex -40.1016 4.67083 0
      vertex -38.8331 6.18268 3
      vertex -38.8331 6.18268 0
    endloop
  endfacet
  facet normal -0.766044 0.642788 0
    outer loop
      vertex -38.8331 6.18268 3
      vertex -40.1016 4.67083 0
      vertex -40.1016 4.67083 3
    endloop
  endfacet
  facet normal 0.286804 -0.957989 0
    outer loop
      vertex 34.476 -8.37087 0
      vertex 36.3667 -7.80484 3
      vertex 34.476 -8.37087 3
    endloop
  endfacet
  facet normal 0.286804 -0.957989 0
    outer loop
      vertex 36.3667 -7.80484 3
      vertex 34.476 -8.37087 0
      vertex 36.3667 -7.80484 0
    endloop
  endfacet
  facet normal -0.766044 -0.642788 0
    outer loop
      vertex -38.8331 -6.18268 0
      vertex -40.1016 -4.67083 3
      vertex -40.1016 -4.67083 0
    endloop
  endfacet
  facet normal -0.766044 -0.642788 0
    outer loop
      vertex -40.1016 -4.67083 3
      vertex -38.8331 -6.18268 0
      vertex -38.8331 -6.18268 3
    endloop
  endfacet
  facet normal -0.39608 -0.918216 0
    outer loop
      vertex -37.25 -7.36122 0
      vertex -35.4378 -8.14291 3
      vertex -37.25 -7.36122 3
    endloop
  endfacet
  facet normal -0.39608 -0.918216 -0
    outer loop
      vertex -35.4378 -8.14291 3
      vertex -37.25 -7.36122 0
      vertex -35.4378 -8.14291 0
    endloop
  endfacet
  facet normal -0.893632 -0.4488 0
    outer loop
      vertex -40.1016 -4.67083 0
      vertex -40.9874 -2.90717 3
      vertex -40.9874 -2.90717 0
    endloop
  endfacet
  facet normal -0.893632 -0.4488 0
    outer loop
      vertex -40.9874 -2.90717 3
      vertex -40.1016 -4.67083 0
      vertex -40.1016 -4.67083 3
    endloop
  endfacet
  facet normal 1 0 0
    outer loop
      vertex -33 5 3
      vertex -33 2 2.5
      vertex -33 5 0
    endloop
  endfacet
  facet normal 1 0 0
    outer loop
      vertex -33 5 3
      vertex -33 -2 2.5
      vertex -33 2 2.5
    endloop
  endfacet
  facet normal 1 -0 0
    outer loop
      vertex -33 -5 3
      vertex -33 -2 2.5
      vertex -33 5 3
    endloop
  endfacet
  facet normal 1 0 0
    outer loop
      vertex -33 -5 0
      vertex -33 -2 2.5
      vertex -33 -5 3
    endloop
  endfacet
  facet normal 1 0 0
    outer loop
      vertex -33 -2 2.5
      vertex -33 -5 0
      vertex -33 -2 0
    endloop
  endfacet
  facet normal 1 0 0
    outer loop
      vertex -33 5 0
      vertex -33 2 2.5
      vertex -33 2 0
    endloop
  endfacet
  facet normal -1 0 0
    outer loop
      vertex 33 -2 0
      vertex 33 -5 0
      vertex 33 -2 2.5
    endloop
  endfacet
  facet normal -1 0 0
    outer loop
      vertex 33 2 2.5
      vertex 33 5 0
      vertex 33 2 0
    endloop
  endfacet
  facet normal -1 0 0
    outer loop
      vertex 33 5 0
      vertex 33 2 2.5
      vertex 33 5 3
    endloop
  endfacet
  facet normal -1 0 0
    outer loop
      vertex 33 -2 2.5
      vertex 33 5 3
      vertex 33 2 2.5
    endloop
  endfacet
  facet normal -1 0 0
    outer loop
      vertex 33 -2 2.5
      vertex 33 -5 3
      vertex 33 5 3
    endloop
  endfacet
  facet normal -1 0 0
    outer loop
      vertex 33 -5 3
      vertex 33 -2 2.5
      vertex 33 -5 0
    endloop
  endfacet
  facet normal 0 1 -0
    outer loop
      vertex 33 2 0
      vertex -33 2 2.5
      vertex 33 2 2.5
    endloop
  endfacet
  facet normal 0 1 0
    outer loop
      vertex -33 2 2.5
      vertex 33 2 0
      vertex -33 2 0
    endloop
  endfacet
  facet normal 0 -1 0
    outer loop
      vertex -33 5 0
      vertex 33 5 3
      vertex -33 5 3
    endloop
  endfacet
  facet normal 0 -1 -0
    outer loop
      vertex 33 5 3
      vertex -33 5 0
      vertex 33 5 0
    endloop
  endfacet
  facet normal 0 -1 0
    outer loop
      vertex -33 -2 0
      vertex 33 -2 2.5
      vertex -33 -2 2.5
    endloop
  endfacet
  facet normal 0 -1 -0
    outer loop
      vertex 33 -2 2.5
      vertex -33 -2 0
      vertex 33 -2 0
    endloop
  endfacet
  facet normal 0 1 -0
    outer loop
      vertex 33 -5 0
      vertex -33 -5 3
      vertex 33 -5 3
    endloop
  endfacet
  facet normal 0 1 0
    outer loop
      vertex -33 -5 3
      vertex 33 -5 0
      vertex -33 -5 0
    endloop
  endfacet
  facet normal -0 0 1
    outer loop
      vertex -33 2 2.5
      vertex 33 -2 2.5
      vertex 33 2 2.5
    endloop
  endfacet
  facet normal 0 0 1
    outer loop
      vertex 33 -2 2.5
      vertex -33 2 2.5
      vertex -33 -2 2.5
    endloop
  endfacet
endsolid OpenSCAD_Model
